G04 #@! TF.GenerationSoftware,KiCad,Pcbnew,8.0.8*
G04 #@! TF.CreationDate,2025-02-09T13:36:47-06:00*
G04 #@! TF.ProjectId,gamepad,67616d65-7061-4642-9e6b-696361645f70,3*
G04 #@! TF.SameCoordinates,Original*
G04 #@! TF.FileFunction,Legend,Bot*
G04 #@! TF.FilePolarity,Positive*
%FSLAX46Y46*%
G04 Gerber Fmt 4.6, Leading zero omitted, Abs format (unit mm)*
G04 Created by KiCad (PCBNEW 8.0.8) date 2025-02-09 13:36:47*
%MOMM*%
%LPD*%
G01*
G04 APERTURE LIST*
G04 Aperture macros list*
%AMFreePoly0*
4,1,25,0.333266,0.742596,0.345389,0.732242,0.732242,0.345389,0.760749,0.289441,0.762000,0.273547,0.762000,-0.273547,0.742596,-0.333266,0.732242,-0.345389,0.345389,-0.732242,0.289441,-0.760749,0.273547,-0.762000,-0.273547,-0.762000,-0.333266,-0.742596,-0.345389,-0.732242,-0.732242,-0.345389,-0.760749,-0.289441,-0.762000,-0.273547,-0.762000,0.273547,-0.742596,0.333266,-0.732242,0.345389,
-0.345389,0.732242,-0.289441,0.760749,-0.273547,0.762000,0.273547,0.762000,0.333266,0.742596,0.333266,0.742596,$1*%
G04 Aperture macros list end*
%ADD10C,0.100000*%
%ADD11C,0.114300*%
%ADD12C,0.080000*%
%ADD13C,0.152400*%
%ADD14C,0.203200*%
%ADD15C,0.127000*%
%ADD16C,2.082800*%
%ADD17C,2.003200*%
%ADD18C,1.960000*%
%ADD19C,1.800000*%
%ADD20O,1.524000X2.844800*%
%ADD21FreePoly0,270.000000*%
%ADD22C,1.500000*%
G04 APERTURE END LIST*
D10*
X71577068Y-68896312D02*
X71577068Y-67396312D01*
X71577068Y-67396312D02*
X71077068Y-68467741D01*
X71077068Y-68467741D02*
X70577068Y-67396312D01*
X70577068Y-67396312D02*
X70577068Y-68896312D01*
X69862782Y-68896312D02*
X69862782Y-67896312D01*
X69862782Y-67396312D02*
X69934210Y-67467741D01*
X69934210Y-67467741D02*
X69862782Y-67539169D01*
X69862782Y-67539169D02*
X69791353Y-67467741D01*
X69791353Y-67467741D02*
X69862782Y-67396312D01*
X69862782Y-67396312D02*
X69862782Y-67539169D01*
X68505639Y-68824884D02*
X68648496Y-68896312D01*
X68648496Y-68896312D02*
X68934210Y-68896312D01*
X68934210Y-68896312D02*
X69077067Y-68824884D01*
X69077067Y-68824884D02*
X69148496Y-68753455D01*
X69148496Y-68753455D02*
X69219924Y-68610598D01*
X69219924Y-68610598D02*
X69219924Y-68182026D01*
X69219924Y-68182026D02*
X69148496Y-68039169D01*
X69148496Y-68039169D02*
X69077067Y-67967741D01*
X69077067Y-67967741D02*
X68934210Y-67896312D01*
X68934210Y-67896312D02*
X68648496Y-67896312D01*
X68648496Y-67896312D02*
X68505639Y-67967741D01*
X67862782Y-68896312D02*
X67862782Y-67396312D01*
X67219925Y-68896312D02*
X67219925Y-68110598D01*
X67219925Y-68110598D02*
X67291353Y-67967741D01*
X67291353Y-67967741D02*
X67434210Y-67896312D01*
X67434210Y-67896312D02*
X67648496Y-67896312D01*
X67648496Y-67896312D02*
X67791353Y-67967741D01*
X67791353Y-67967741D02*
X67862782Y-68039169D01*
X65862782Y-68896312D02*
X65862782Y-68110598D01*
X65862782Y-68110598D02*
X65934210Y-67967741D01*
X65934210Y-67967741D02*
X66077067Y-67896312D01*
X66077067Y-67896312D02*
X66362782Y-67896312D01*
X66362782Y-67896312D02*
X66505639Y-67967741D01*
X65862782Y-68824884D02*
X66005639Y-68896312D01*
X66005639Y-68896312D02*
X66362782Y-68896312D01*
X66362782Y-68896312D02*
X66505639Y-68824884D01*
X66505639Y-68824884D02*
X66577067Y-68682026D01*
X66577067Y-68682026D02*
X66577067Y-68539169D01*
X66577067Y-68539169D02*
X66505639Y-68396312D01*
X66505639Y-68396312D02*
X66362782Y-68324884D01*
X66362782Y-68324884D02*
X66005639Y-68324884D01*
X66005639Y-68324884D02*
X65862782Y-68253455D01*
X64577067Y-68824884D02*
X64719924Y-68896312D01*
X64719924Y-68896312D02*
X65005639Y-68896312D01*
X65005639Y-68896312D02*
X65148496Y-68824884D01*
X65148496Y-68824884D02*
X65219924Y-68682026D01*
X65219924Y-68682026D02*
X65219924Y-68110598D01*
X65219924Y-68110598D02*
X65148496Y-67967741D01*
X65148496Y-67967741D02*
X65005639Y-67896312D01*
X65005639Y-67896312D02*
X64719924Y-67896312D01*
X64719924Y-67896312D02*
X64577067Y-67967741D01*
X64577067Y-67967741D02*
X64505639Y-68110598D01*
X64505639Y-68110598D02*
X64505639Y-68253455D01*
X64505639Y-68253455D02*
X65219924Y-68396312D01*
X63648496Y-68896312D02*
X63791353Y-68824884D01*
X63791353Y-68824884D02*
X63862782Y-68682026D01*
X63862782Y-68682026D02*
X63862782Y-67396312D01*
X62077068Y-67396312D02*
X61719925Y-68896312D01*
X61719925Y-68896312D02*
X61434211Y-67824884D01*
X61434211Y-67824884D02*
X61148496Y-68896312D01*
X61148496Y-68896312D02*
X60791354Y-67396312D01*
X60219925Y-68896312D02*
X60219925Y-67896312D01*
X60219925Y-67396312D02*
X60291353Y-67467741D01*
X60291353Y-67467741D02*
X60219925Y-67539169D01*
X60219925Y-67539169D02*
X60148496Y-67467741D01*
X60148496Y-67467741D02*
X60219925Y-67396312D01*
X60219925Y-67396312D02*
X60219925Y-67539169D01*
X59291353Y-68896312D02*
X59434210Y-68824884D01*
X59434210Y-68824884D02*
X59505639Y-68682026D01*
X59505639Y-68682026D02*
X59505639Y-67396312D01*
X58791353Y-68824884D02*
X58648496Y-68896312D01*
X58648496Y-68896312D02*
X58362782Y-68896312D01*
X58362782Y-68896312D02*
X58219925Y-68824884D01*
X58219925Y-68824884D02*
X58148496Y-68682026D01*
X58148496Y-68682026D02*
X58148496Y-68610598D01*
X58148496Y-68610598D02*
X58219925Y-68467741D01*
X58219925Y-68467741D02*
X58362782Y-68396312D01*
X58362782Y-68396312D02*
X58577068Y-68396312D01*
X58577068Y-68396312D02*
X58719925Y-68324884D01*
X58719925Y-68324884D02*
X58791353Y-68182026D01*
X58791353Y-68182026D02*
X58791353Y-68110598D01*
X58791353Y-68110598D02*
X58719925Y-67967741D01*
X58719925Y-67967741D02*
X58577068Y-67896312D01*
X58577068Y-67896312D02*
X58362782Y-67896312D01*
X58362782Y-67896312D02*
X58219925Y-67967741D01*
X57291353Y-68896312D02*
X57434210Y-68824884D01*
X57434210Y-68824884D02*
X57505639Y-68753455D01*
X57505639Y-68753455D02*
X57577067Y-68610598D01*
X57577067Y-68610598D02*
X57577067Y-68182026D01*
X57577067Y-68182026D02*
X57505639Y-68039169D01*
X57505639Y-68039169D02*
X57434210Y-67967741D01*
X57434210Y-67967741D02*
X57291353Y-67896312D01*
X57291353Y-67896312D02*
X57077067Y-67896312D01*
X57077067Y-67896312D02*
X56934210Y-67967741D01*
X56934210Y-67967741D02*
X56862782Y-68039169D01*
X56862782Y-68039169D02*
X56791353Y-68182026D01*
X56791353Y-68182026D02*
X56791353Y-68610598D01*
X56791353Y-68610598D02*
X56862782Y-68753455D01*
X56862782Y-68753455D02*
X56934210Y-68824884D01*
X56934210Y-68824884D02*
X57077067Y-68896312D01*
X57077067Y-68896312D02*
X57291353Y-68896312D01*
X56148496Y-67896312D02*
X56148496Y-68896312D01*
X56148496Y-68039169D02*
X56077067Y-67967741D01*
X56077067Y-67967741D02*
X55934210Y-67896312D01*
X55934210Y-67896312D02*
X55719924Y-67896312D01*
X55719924Y-67896312D02*
X55577067Y-67967741D01*
X55577067Y-67967741D02*
X55505639Y-68110598D01*
X55505639Y-68110598D02*
X55505639Y-68896312D01*
X70719925Y-71311228D02*
X71219925Y-70596942D01*
X71577068Y-71311228D02*
X71577068Y-69811228D01*
X71577068Y-69811228D02*
X71005639Y-69811228D01*
X71005639Y-69811228D02*
X70862782Y-69882657D01*
X70862782Y-69882657D02*
X70791353Y-69954085D01*
X70791353Y-69954085D02*
X70719925Y-70096942D01*
X70719925Y-70096942D02*
X70719925Y-70311228D01*
X70719925Y-70311228D02*
X70791353Y-70454085D01*
X70791353Y-70454085D02*
X70862782Y-70525514D01*
X70862782Y-70525514D02*
X71005639Y-70596942D01*
X71005639Y-70596942D02*
X71577068Y-70596942D01*
X69505639Y-71239800D02*
X69648496Y-71311228D01*
X69648496Y-71311228D02*
X69934211Y-71311228D01*
X69934211Y-71311228D02*
X70077068Y-71239800D01*
X70077068Y-71239800D02*
X70148496Y-71096942D01*
X70148496Y-71096942D02*
X70148496Y-70525514D01*
X70148496Y-70525514D02*
X70077068Y-70382657D01*
X70077068Y-70382657D02*
X69934211Y-70311228D01*
X69934211Y-70311228D02*
X69648496Y-70311228D01*
X69648496Y-70311228D02*
X69505639Y-70382657D01*
X69505639Y-70382657D02*
X69434211Y-70525514D01*
X69434211Y-70525514D02*
X69434211Y-70668371D01*
X69434211Y-70668371D02*
X70148496Y-70811228D01*
X69005639Y-70311228D02*
X68434211Y-70311228D01*
X68791354Y-69811228D02*
X68791354Y-71096942D01*
X68791354Y-71096942D02*
X68719925Y-71239800D01*
X68719925Y-71239800D02*
X68577068Y-71311228D01*
X68577068Y-71311228D02*
X68434211Y-71311228D01*
X67934211Y-71311228D02*
X67934211Y-70311228D01*
X67934211Y-70596942D02*
X67862782Y-70454085D01*
X67862782Y-70454085D02*
X67791354Y-70382657D01*
X67791354Y-70382657D02*
X67648496Y-70311228D01*
X67648496Y-70311228D02*
X67505639Y-70311228D01*
X66791354Y-71311228D02*
X66934211Y-71239800D01*
X66934211Y-71239800D02*
X67005640Y-71168371D01*
X67005640Y-71168371D02*
X67077068Y-71025514D01*
X67077068Y-71025514D02*
X67077068Y-70596942D01*
X67077068Y-70596942D02*
X67005640Y-70454085D01*
X67005640Y-70454085D02*
X66934211Y-70382657D01*
X66934211Y-70382657D02*
X66791354Y-70311228D01*
X66791354Y-70311228D02*
X66577068Y-70311228D01*
X66577068Y-70311228D02*
X66434211Y-70382657D01*
X66434211Y-70382657D02*
X66362783Y-70454085D01*
X66362783Y-70454085D02*
X66291354Y-70596942D01*
X66291354Y-70596942D02*
X66291354Y-71025514D01*
X66291354Y-71025514D02*
X66362783Y-71168371D01*
X66362783Y-71168371D02*
X66434211Y-71239800D01*
X66434211Y-71239800D02*
X66577068Y-71311228D01*
X66577068Y-71311228D02*
X66791354Y-71311228D01*
X65648497Y-71311228D02*
X65648497Y-69811228D01*
X65648497Y-69811228D02*
X65077068Y-69811228D01*
X65077068Y-69811228D02*
X64934211Y-69882657D01*
X64934211Y-69882657D02*
X64862782Y-69954085D01*
X64862782Y-69954085D02*
X64791354Y-70096942D01*
X64791354Y-70096942D02*
X64791354Y-70311228D01*
X64791354Y-70311228D02*
X64862782Y-70454085D01*
X64862782Y-70454085D02*
X64934211Y-70525514D01*
X64934211Y-70525514D02*
X65077068Y-70596942D01*
X65077068Y-70596942D02*
X65648497Y-70596942D01*
X64148497Y-71311228D02*
X64148497Y-70311228D01*
X64148497Y-69811228D02*
X64219925Y-69882657D01*
X64219925Y-69882657D02*
X64148497Y-69954085D01*
X64148497Y-69954085D02*
X64077068Y-69882657D01*
X64077068Y-69882657D02*
X64148497Y-69811228D01*
X64148497Y-69811228D02*
X64148497Y-69954085D01*
X62862782Y-71239800D02*
X63005639Y-71311228D01*
X63005639Y-71311228D02*
X63291354Y-71311228D01*
X63291354Y-71311228D02*
X63434211Y-71239800D01*
X63434211Y-71239800D02*
X63505639Y-71096942D01*
X63505639Y-71096942D02*
X63505639Y-70525514D01*
X63505639Y-70525514D02*
X63434211Y-70382657D01*
X63434211Y-70382657D02*
X63291354Y-70311228D01*
X63291354Y-70311228D02*
X63005639Y-70311228D01*
X63005639Y-70311228D02*
X62862782Y-70382657D01*
X62862782Y-70382657D02*
X62791354Y-70525514D01*
X62791354Y-70525514D02*
X62791354Y-70668371D01*
X62791354Y-70668371D02*
X63505639Y-70811228D01*
X60219925Y-69882657D02*
X60362783Y-69811228D01*
X60362783Y-69811228D02*
X60577068Y-69811228D01*
X60577068Y-69811228D02*
X60791354Y-69882657D01*
X60791354Y-69882657D02*
X60934211Y-70025514D01*
X60934211Y-70025514D02*
X61005640Y-70168371D01*
X61005640Y-70168371D02*
X61077068Y-70454085D01*
X61077068Y-70454085D02*
X61077068Y-70668371D01*
X61077068Y-70668371D02*
X61005640Y-70954085D01*
X61005640Y-70954085D02*
X60934211Y-71096942D01*
X60934211Y-71096942D02*
X60791354Y-71239800D01*
X60791354Y-71239800D02*
X60577068Y-71311228D01*
X60577068Y-71311228D02*
X60434211Y-71311228D01*
X60434211Y-71311228D02*
X60219925Y-71239800D01*
X60219925Y-71239800D02*
X60148497Y-71168371D01*
X60148497Y-71168371D02*
X60148497Y-70668371D01*
X60148497Y-70668371D02*
X60434211Y-70668371D01*
X58862783Y-71311228D02*
X58862783Y-70525514D01*
X58862783Y-70525514D02*
X58934211Y-70382657D01*
X58934211Y-70382657D02*
X59077068Y-70311228D01*
X59077068Y-70311228D02*
X59362783Y-70311228D01*
X59362783Y-70311228D02*
X59505640Y-70382657D01*
X58862783Y-71239800D02*
X59005640Y-71311228D01*
X59005640Y-71311228D02*
X59362783Y-71311228D01*
X59362783Y-71311228D02*
X59505640Y-71239800D01*
X59505640Y-71239800D02*
X59577068Y-71096942D01*
X59577068Y-71096942D02*
X59577068Y-70954085D01*
X59577068Y-70954085D02*
X59505640Y-70811228D01*
X59505640Y-70811228D02*
X59362783Y-70739800D01*
X59362783Y-70739800D02*
X59005640Y-70739800D01*
X59005640Y-70739800D02*
X58862783Y-70668371D01*
X58148497Y-71311228D02*
X58148497Y-70311228D01*
X58148497Y-70454085D02*
X58077068Y-70382657D01*
X58077068Y-70382657D02*
X57934211Y-70311228D01*
X57934211Y-70311228D02*
X57719925Y-70311228D01*
X57719925Y-70311228D02*
X57577068Y-70382657D01*
X57577068Y-70382657D02*
X57505640Y-70525514D01*
X57505640Y-70525514D02*
X57505640Y-71311228D01*
X57505640Y-70525514D02*
X57434211Y-70382657D01*
X57434211Y-70382657D02*
X57291354Y-70311228D01*
X57291354Y-70311228D02*
X57077068Y-70311228D01*
X57077068Y-70311228D02*
X56934211Y-70382657D01*
X56934211Y-70382657D02*
X56862782Y-70525514D01*
X56862782Y-70525514D02*
X56862782Y-71311228D01*
X55577068Y-71239800D02*
X55719925Y-71311228D01*
X55719925Y-71311228D02*
X56005640Y-71311228D01*
X56005640Y-71311228D02*
X56148497Y-71239800D01*
X56148497Y-71239800D02*
X56219925Y-71096942D01*
X56219925Y-71096942D02*
X56219925Y-70525514D01*
X56219925Y-70525514D02*
X56148497Y-70382657D01*
X56148497Y-70382657D02*
X56005640Y-70311228D01*
X56005640Y-70311228D02*
X55719925Y-70311228D01*
X55719925Y-70311228D02*
X55577068Y-70382657D01*
X55577068Y-70382657D02*
X55505640Y-70525514D01*
X55505640Y-70525514D02*
X55505640Y-70668371D01*
X55505640Y-70668371D02*
X56219925Y-70811228D01*
X54862783Y-70311228D02*
X54862783Y-71811228D01*
X54862783Y-70382657D02*
X54719926Y-70311228D01*
X54719926Y-70311228D02*
X54434211Y-70311228D01*
X54434211Y-70311228D02*
X54291354Y-70382657D01*
X54291354Y-70382657D02*
X54219926Y-70454085D01*
X54219926Y-70454085D02*
X54148497Y-70596942D01*
X54148497Y-70596942D02*
X54148497Y-71025514D01*
X54148497Y-71025514D02*
X54219926Y-71168371D01*
X54219926Y-71168371D02*
X54291354Y-71239800D01*
X54291354Y-71239800D02*
X54434211Y-71311228D01*
X54434211Y-71311228D02*
X54719926Y-71311228D01*
X54719926Y-71311228D02*
X54862783Y-71239800D01*
X52862783Y-71311228D02*
X52862783Y-70525514D01*
X52862783Y-70525514D02*
X52934211Y-70382657D01*
X52934211Y-70382657D02*
X53077068Y-70311228D01*
X53077068Y-70311228D02*
X53362783Y-70311228D01*
X53362783Y-70311228D02*
X53505640Y-70382657D01*
X52862783Y-71239800D02*
X53005640Y-71311228D01*
X53005640Y-71311228D02*
X53362783Y-71311228D01*
X53362783Y-71311228D02*
X53505640Y-71239800D01*
X53505640Y-71239800D02*
X53577068Y-71096942D01*
X53577068Y-71096942D02*
X53577068Y-70954085D01*
X53577068Y-70954085D02*
X53505640Y-70811228D01*
X53505640Y-70811228D02*
X53362783Y-70739800D01*
X53362783Y-70739800D02*
X53005640Y-70739800D01*
X53005640Y-70739800D02*
X52862783Y-70668371D01*
X51505640Y-71311228D02*
X51505640Y-69811228D01*
X51505640Y-71239800D02*
X51648497Y-71311228D01*
X51648497Y-71311228D02*
X51934211Y-71311228D01*
X51934211Y-71311228D02*
X52077068Y-71239800D01*
X52077068Y-71239800D02*
X52148497Y-71168371D01*
X52148497Y-71168371D02*
X52219925Y-71025514D01*
X52219925Y-71025514D02*
X52219925Y-70596942D01*
X52219925Y-70596942D02*
X52148497Y-70454085D01*
X52148497Y-70454085D02*
X52077068Y-70382657D01*
X52077068Y-70382657D02*
X51934211Y-70311228D01*
X51934211Y-70311228D02*
X51648497Y-70311228D01*
X51648497Y-70311228D02*
X51505640Y-70382657D01*
X147372419Y-144303884D02*
X146372419Y-144303884D01*
X147372419Y-144780074D02*
X146372419Y-144780074D01*
X146372419Y-144780074D02*
X147372419Y-145351502D01*
X147372419Y-145351502D02*
X146372419Y-145351502D01*
X146372419Y-145684836D02*
X146372419Y-146256264D01*
X147372419Y-145970550D02*
X146372419Y-145970550D01*
X146848609Y-146922931D02*
X146896228Y-147065788D01*
X146896228Y-147065788D02*
X146943847Y-147113407D01*
X146943847Y-147113407D02*
X147039085Y-147161026D01*
X147039085Y-147161026D02*
X147181942Y-147161026D01*
X147181942Y-147161026D02*
X147277180Y-147113407D01*
X147277180Y-147113407D02*
X147324800Y-147065788D01*
X147324800Y-147065788D02*
X147372419Y-146970550D01*
X147372419Y-146970550D02*
X147372419Y-146589598D01*
X147372419Y-146589598D02*
X146372419Y-146589598D01*
X146372419Y-146589598D02*
X146372419Y-146922931D01*
X146372419Y-146922931D02*
X146420038Y-147018169D01*
X146420038Y-147018169D02*
X146467657Y-147065788D01*
X146467657Y-147065788D02*
X146562895Y-147113407D01*
X146562895Y-147113407D02*
X146658133Y-147113407D01*
X146658133Y-147113407D02*
X146753371Y-147065788D01*
X146753371Y-147065788D02*
X146800990Y-147018169D01*
X146800990Y-147018169D02*
X146848609Y-146922931D01*
X146848609Y-146922931D02*
X146848609Y-146589598D01*
X149872419Y-144303884D02*
X148872419Y-144303884D01*
X148872419Y-144303884D02*
X149586704Y-144637217D01*
X149586704Y-144637217D02*
X148872419Y-144970550D01*
X148872419Y-144970550D02*
X149872419Y-144970550D01*
X148872419Y-145637217D02*
X148872419Y-145827693D01*
X148872419Y-145827693D02*
X148920038Y-145922931D01*
X148920038Y-145922931D02*
X149015276Y-146018169D01*
X149015276Y-146018169D02*
X149205752Y-146065788D01*
X149205752Y-146065788D02*
X149539085Y-146065788D01*
X149539085Y-146065788D02*
X149729561Y-146018169D01*
X149729561Y-146018169D02*
X149824800Y-145922931D01*
X149824800Y-145922931D02*
X149872419Y-145827693D01*
X149872419Y-145827693D02*
X149872419Y-145637217D01*
X149872419Y-145637217D02*
X149824800Y-145541979D01*
X149824800Y-145541979D02*
X149729561Y-145446741D01*
X149729561Y-145446741D02*
X149539085Y-145399122D01*
X149539085Y-145399122D02*
X149205752Y-145399122D01*
X149205752Y-145399122D02*
X149015276Y-145446741D01*
X149015276Y-145446741D02*
X148920038Y-145541979D01*
X148920038Y-145541979D02*
X148872419Y-145637217D01*
X149824800Y-146446741D02*
X149872419Y-146589598D01*
X149872419Y-146589598D02*
X149872419Y-146827693D01*
X149872419Y-146827693D02*
X149824800Y-146922931D01*
X149824800Y-146922931D02*
X149777180Y-146970550D01*
X149777180Y-146970550D02*
X149681942Y-147018169D01*
X149681942Y-147018169D02*
X149586704Y-147018169D01*
X149586704Y-147018169D02*
X149491466Y-146970550D01*
X149491466Y-146970550D02*
X149443847Y-146922931D01*
X149443847Y-146922931D02*
X149396228Y-146827693D01*
X149396228Y-146827693D02*
X149348609Y-146637217D01*
X149348609Y-146637217D02*
X149300990Y-146541979D01*
X149300990Y-146541979D02*
X149253371Y-146494360D01*
X149253371Y-146494360D02*
X149158133Y-146446741D01*
X149158133Y-146446741D02*
X149062895Y-146446741D01*
X149062895Y-146446741D02*
X148967657Y-146494360D01*
X148967657Y-146494360D02*
X148920038Y-146541979D01*
X148920038Y-146541979D02*
X148872419Y-146637217D01*
X148872419Y-146637217D02*
X148872419Y-146875312D01*
X148872419Y-146875312D02*
X148920038Y-147018169D01*
X149872419Y-147446741D02*
X148872419Y-147446741D01*
X152572419Y-144303884D02*
X151572419Y-144303884D01*
X151572419Y-144303884D02*
X152286704Y-144637217D01*
X152286704Y-144637217D02*
X151572419Y-144970550D01*
X151572419Y-144970550D02*
X152572419Y-144970550D01*
X152572419Y-145446741D02*
X151572419Y-145446741D01*
X152524800Y-145875312D02*
X152572419Y-146018169D01*
X152572419Y-146018169D02*
X152572419Y-146256264D01*
X152572419Y-146256264D02*
X152524800Y-146351502D01*
X152524800Y-146351502D02*
X152477180Y-146399121D01*
X152477180Y-146399121D02*
X152381942Y-146446740D01*
X152381942Y-146446740D02*
X152286704Y-146446740D01*
X152286704Y-146446740D02*
X152191466Y-146399121D01*
X152191466Y-146399121D02*
X152143847Y-146351502D01*
X152143847Y-146351502D02*
X152096228Y-146256264D01*
X152096228Y-146256264D02*
X152048609Y-146065788D01*
X152048609Y-146065788D02*
X152000990Y-145970550D01*
X152000990Y-145970550D02*
X151953371Y-145922931D01*
X151953371Y-145922931D02*
X151858133Y-145875312D01*
X151858133Y-145875312D02*
X151762895Y-145875312D01*
X151762895Y-145875312D02*
X151667657Y-145922931D01*
X151667657Y-145922931D02*
X151620038Y-145970550D01*
X151620038Y-145970550D02*
X151572419Y-146065788D01*
X151572419Y-146065788D02*
X151572419Y-146303883D01*
X151572419Y-146303883D02*
X151620038Y-146446740D01*
X151572419Y-147065788D02*
X151572419Y-147256264D01*
X151572419Y-147256264D02*
X151620038Y-147351502D01*
X151620038Y-147351502D02*
X151715276Y-147446740D01*
X151715276Y-147446740D02*
X151905752Y-147494359D01*
X151905752Y-147494359D02*
X152239085Y-147494359D01*
X152239085Y-147494359D02*
X152429561Y-147446740D01*
X152429561Y-147446740D02*
X152524800Y-147351502D01*
X152524800Y-147351502D02*
X152572419Y-147256264D01*
X152572419Y-147256264D02*
X152572419Y-147065788D01*
X152572419Y-147065788D02*
X152524800Y-146970550D01*
X152524800Y-146970550D02*
X152429561Y-146875312D01*
X152429561Y-146875312D02*
X152239085Y-146827693D01*
X152239085Y-146827693D02*
X151905752Y-146827693D01*
X151905752Y-146827693D02*
X151715276Y-146875312D01*
X151715276Y-146875312D02*
X151620038Y-146970550D01*
X151620038Y-146970550D02*
X151572419Y-147065788D01*
X155024800Y-144256265D02*
X155072419Y-144399122D01*
X155072419Y-144399122D02*
X155072419Y-144637217D01*
X155072419Y-144637217D02*
X155024800Y-144732455D01*
X155024800Y-144732455D02*
X154977180Y-144780074D01*
X154977180Y-144780074D02*
X154881942Y-144827693D01*
X154881942Y-144827693D02*
X154786704Y-144827693D01*
X154786704Y-144827693D02*
X154691466Y-144780074D01*
X154691466Y-144780074D02*
X154643847Y-144732455D01*
X154643847Y-144732455D02*
X154596228Y-144637217D01*
X154596228Y-144637217D02*
X154548609Y-144446741D01*
X154548609Y-144446741D02*
X154500990Y-144351503D01*
X154500990Y-144351503D02*
X154453371Y-144303884D01*
X154453371Y-144303884D02*
X154358133Y-144256265D01*
X154358133Y-144256265D02*
X154262895Y-144256265D01*
X154262895Y-144256265D02*
X154167657Y-144303884D01*
X154167657Y-144303884D02*
X154120038Y-144351503D01*
X154120038Y-144351503D02*
X154072419Y-144446741D01*
X154072419Y-144446741D02*
X154072419Y-144684836D01*
X154072419Y-144684836D02*
X154120038Y-144827693D01*
X155072419Y-145732455D02*
X155072419Y-145256265D01*
X155072419Y-145256265D02*
X154072419Y-145256265D01*
X155072419Y-146065789D02*
X154072419Y-146065789D01*
X155072419Y-146637217D02*
X154500990Y-146208646D01*
X154072419Y-146637217D02*
X154643847Y-146065789D01*
X157527180Y-144875312D02*
X157574800Y-144827693D01*
X157574800Y-144827693D02*
X157622419Y-144684836D01*
X157622419Y-144684836D02*
X157622419Y-144589598D01*
X157622419Y-144589598D02*
X157574800Y-144446741D01*
X157574800Y-144446741D02*
X157479561Y-144351503D01*
X157479561Y-144351503D02*
X157384323Y-144303884D01*
X157384323Y-144303884D02*
X157193847Y-144256265D01*
X157193847Y-144256265D02*
X157050990Y-144256265D01*
X157050990Y-144256265D02*
X156860514Y-144303884D01*
X156860514Y-144303884D02*
X156765276Y-144351503D01*
X156765276Y-144351503D02*
X156670038Y-144446741D01*
X156670038Y-144446741D02*
X156622419Y-144589598D01*
X156622419Y-144589598D02*
X156622419Y-144684836D01*
X156622419Y-144684836D02*
X156670038Y-144827693D01*
X156670038Y-144827693D02*
X156717657Y-144875312D01*
X157098609Y-145303884D02*
X157098609Y-145637217D01*
X157622419Y-145780074D02*
X157622419Y-145303884D01*
X157622419Y-145303884D02*
X156622419Y-145303884D01*
X156622419Y-145303884D02*
X156622419Y-145780074D01*
X156622419Y-146399122D02*
X156622419Y-146494360D01*
X156622419Y-146494360D02*
X156670038Y-146589598D01*
X156670038Y-146589598D02*
X156717657Y-146637217D01*
X156717657Y-146637217D02*
X156812895Y-146684836D01*
X156812895Y-146684836D02*
X157003371Y-146732455D01*
X157003371Y-146732455D02*
X157241466Y-146732455D01*
X157241466Y-146732455D02*
X157431942Y-146684836D01*
X157431942Y-146684836D02*
X157527180Y-146637217D01*
X157527180Y-146637217D02*
X157574800Y-146589598D01*
X157574800Y-146589598D02*
X157622419Y-146494360D01*
X157622419Y-146494360D02*
X157622419Y-146399122D01*
X157622419Y-146399122D02*
X157574800Y-146303884D01*
X157574800Y-146303884D02*
X157527180Y-146256265D01*
X157527180Y-146256265D02*
X157431942Y-146208646D01*
X157431942Y-146208646D02*
X157241466Y-146161027D01*
X157241466Y-146161027D02*
X157003371Y-146161027D01*
X157003371Y-146161027D02*
X156812895Y-146208646D01*
X156812895Y-146208646D02*
X156717657Y-146256265D01*
X156717657Y-146256265D02*
X156670038Y-146303884D01*
X156670038Y-146303884D02*
X156622419Y-146399122D01*
X147372419Y-153303884D02*
X146372419Y-153303884D01*
X147372419Y-153780074D02*
X146372419Y-153780074D01*
X146372419Y-153780074D02*
X147372419Y-154351502D01*
X147372419Y-154351502D02*
X146372419Y-154351502D01*
X146372419Y-154684836D02*
X146372419Y-155256264D01*
X147372419Y-154970550D02*
X146372419Y-154970550D01*
X147086704Y-155541979D02*
X147086704Y-156018169D01*
X147372419Y-155446741D02*
X146372419Y-155780074D01*
X146372419Y-155780074D02*
X147372419Y-156113407D01*
X149824800Y-153256265D02*
X149872419Y-153399122D01*
X149872419Y-153399122D02*
X149872419Y-153637217D01*
X149872419Y-153637217D02*
X149824800Y-153732455D01*
X149824800Y-153732455D02*
X149777180Y-153780074D01*
X149777180Y-153780074D02*
X149681942Y-153827693D01*
X149681942Y-153827693D02*
X149586704Y-153827693D01*
X149586704Y-153827693D02*
X149491466Y-153780074D01*
X149491466Y-153780074D02*
X149443847Y-153732455D01*
X149443847Y-153732455D02*
X149396228Y-153637217D01*
X149396228Y-153637217D02*
X149348609Y-153446741D01*
X149348609Y-153446741D02*
X149300990Y-153351503D01*
X149300990Y-153351503D02*
X149253371Y-153303884D01*
X149253371Y-153303884D02*
X149158133Y-153256265D01*
X149158133Y-153256265D02*
X149062895Y-153256265D01*
X149062895Y-153256265D02*
X148967657Y-153303884D01*
X148967657Y-153303884D02*
X148920038Y-153351503D01*
X148920038Y-153351503D02*
X148872419Y-153446741D01*
X148872419Y-153446741D02*
X148872419Y-153684836D01*
X148872419Y-153684836D02*
X148920038Y-153827693D01*
X149777180Y-154827693D02*
X149824800Y-154780074D01*
X149824800Y-154780074D02*
X149872419Y-154637217D01*
X149872419Y-154637217D02*
X149872419Y-154541979D01*
X149872419Y-154541979D02*
X149824800Y-154399122D01*
X149824800Y-154399122D02*
X149729561Y-154303884D01*
X149729561Y-154303884D02*
X149634323Y-154256265D01*
X149634323Y-154256265D02*
X149443847Y-154208646D01*
X149443847Y-154208646D02*
X149300990Y-154208646D01*
X149300990Y-154208646D02*
X149110514Y-154256265D01*
X149110514Y-154256265D02*
X149015276Y-154303884D01*
X149015276Y-154303884D02*
X148920038Y-154399122D01*
X148920038Y-154399122D02*
X148872419Y-154541979D01*
X148872419Y-154541979D02*
X148872419Y-154637217D01*
X148872419Y-154637217D02*
X148920038Y-154780074D01*
X148920038Y-154780074D02*
X148967657Y-154827693D01*
X149872419Y-155732455D02*
X149872419Y-155256265D01*
X149872419Y-155256265D02*
X148872419Y-155256265D01*
X152324800Y-153256265D02*
X152372419Y-153399122D01*
X152372419Y-153399122D02*
X152372419Y-153637217D01*
X152372419Y-153637217D02*
X152324800Y-153732455D01*
X152324800Y-153732455D02*
X152277180Y-153780074D01*
X152277180Y-153780074D02*
X152181942Y-153827693D01*
X152181942Y-153827693D02*
X152086704Y-153827693D01*
X152086704Y-153827693D02*
X151991466Y-153780074D01*
X151991466Y-153780074D02*
X151943847Y-153732455D01*
X151943847Y-153732455D02*
X151896228Y-153637217D01*
X151896228Y-153637217D02*
X151848609Y-153446741D01*
X151848609Y-153446741D02*
X151800990Y-153351503D01*
X151800990Y-153351503D02*
X151753371Y-153303884D01*
X151753371Y-153303884D02*
X151658133Y-153256265D01*
X151658133Y-153256265D02*
X151562895Y-153256265D01*
X151562895Y-153256265D02*
X151467657Y-153303884D01*
X151467657Y-153303884D02*
X151420038Y-153351503D01*
X151420038Y-153351503D02*
X151372419Y-153446741D01*
X151372419Y-153446741D02*
X151372419Y-153684836D01*
X151372419Y-153684836D02*
X151420038Y-153827693D01*
X152372419Y-154256265D02*
X151372419Y-154256265D01*
X151372419Y-154256265D02*
X151372419Y-154494360D01*
X151372419Y-154494360D02*
X151420038Y-154637217D01*
X151420038Y-154637217D02*
X151515276Y-154732455D01*
X151515276Y-154732455D02*
X151610514Y-154780074D01*
X151610514Y-154780074D02*
X151800990Y-154827693D01*
X151800990Y-154827693D02*
X151943847Y-154827693D01*
X151943847Y-154827693D02*
X152134323Y-154780074D01*
X152134323Y-154780074D02*
X152229561Y-154732455D01*
X152229561Y-154732455D02*
X152324800Y-154637217D01*
X152324800Y-154637217D02*
X152372419Y-154494360D01*
X152372419Y-154494360D02*
X152372419Y-154256265D01*
X152086704Y-155208646D02*
X152086704Y-155684836D01*
X152372419Y-155113408D02*
X151372419Y-155446741D01*
X151372419Y-155446741D02*
X152372419Y-155780074D01*
X154120038Y-153827693D02*
X154072419Y-153732455D01*
X154072419Y-153732455D02*
X154072419Y-153589598D01*
X154072419Y-153589598D02*
X154120038Y-153446741D01*
X154120038Y-153446741D02*
X154215276Y-153351503D01*
X154215276Y-153351503D02*
X154310514Y-153303884D01*
X154310514Y-153303884D02*
X154500990Y-153256265D01*
X154500990Y-153256265D02*
X154643847Y-153256265D01*
X154643847Y-153256265D02*
X154834323Y-153303884D01*
X154834323Y-153303884D02*
X154929561Y-153351503D01*
X154929561Y-153351503D02*
X155024800Y-153446741D01*
X155024800Y-153446741D02*
X155072419Y-153589598D01*
X155072419Y-153589598D02*
X155072419Y-153684836D01*
X155072419Y-153684836D02*
X155024800Y-153827693D01*
X155024800Y-153827693D02*
X154977180Y-153875312D01*
X154977180Y-153875312D02*
X154643847Y-153875312D01*
X154643847Y-153875312D02*
X154643847Y-153684836D01*
X155072419Y-154303884D02*
X154072419Y-154303884D01*
X154072419Y-154303884D02*
X155072419Y-154875312D01*
X155072419Y-154875312D02*
X154072419Y-154875312D01*
X155072419Y-155351503D02*
X154072419Y-155351503D01*
X154072419Y-155351503D02*
X154072419Y-155589598D01*
X154072419Y-155589598D02*
X154120038Y-155732455D01*
X154120038Y-155732455D02*
X154215276Y-155827693D01*
X154215276Y-155827693D02*
X154310514Y-155875312D01*
X154310514Y-155875312D02*
X154500990Y-155922931D01*
X154500990Y-155922931D02*
X154643847Y-155922931D01*
X154643847Y-155922931D02*
X154834323Y-155875312D01*
X154834323Y-155875312D02*
X154929561Y-155827693D01*
X154929561Y-155827693D02*
X155024800Y-155732455D01*
X155024800Y-155732455D02*
X155072419Y-155589598D01*
X155072419Y-155589598D02*
X155072419Y-155351503D01*
D11*
X199852620Y-150510763D02*
X199302287Y-150125530D01*
X199852620Y-149850363D02*
X198696920Y-149850363D01*
X198696920Y-149850363D02*
X198696920Y-150290630D01*
X198696920Y-150290630D02*
X198751953Y-150400697D01*
X198751953Y-150400697D02*
X198806987Y-150455730D01*
X198806987Y-150455730D02*
X198917053Y-150510763D01*
X198917053Y-150510763D02*
X199082153Y-150510763D01*
X199082153Y-150510763D02*
X199192220Y-150455730D01*
X199192220Y-150455730D02*
X199247253Y-150400697D01*
X199247253Y-150400697D02*
X199302287Y-150290630D01*
X199302287Y-150290630D02*
X199302287Y-149850363D01*
X198806987Y-150951030D02*
X198751953Y-151006063D01*
X198751953Y-151006063D02*
X198696920Y-151116130D01*
X198696920Y-151116130D02*
X198696920Y-151391297D01*
X198696920Y-151391297D02*
X198751953Y-151501363D01*
X198751953Y-151501363D02*
X198806987Y-151556397D01*
X198806987Y-151556397D02*
X198917053Y-151611430D01*
X198917053Y-151611430D02*
X199027120Y-151611430D01*
X199027120Y-151611430D02*
X199192220Y-151556397D01*
X199192220Y-151556397D02*
X199852620Y-150895997D01*
X199852620Y-150895997D02*
X199852620Y-151611430D01*
D12*
X220921078Y-54814535D02*
X220873459Y-54719297D01*
X220873459Y-54719297D02*
X220873459Y-54576440D01*
X220873459Y-54576440D02*
X220921078Y-54433583D01*
X220921078Y-54433583D02*
X221016316Y-54338345D01*
X221016316Y-54338345D02*
X221111554Y-54290726D01*
X221111554Y-54290726D02*
X221302030Y-54243107D01*
X221302030Y-54243107D02*
X221444887Y-54243107D01*
X221444887Y-54243107D02*
X221635363Y-54290726D01*
X221635363Y-54290726D02*
X221730601Y-54338345D01*
X221730601Y-54338345D02*
X221825840Y-54433583D01*
X221825840Y-54433583D02*
X221873459Y-54576440D01*
X221873459Y-54576440D02*
X221873459Y-54671678D01*
X221873459Y-54671678D02*
X221825840Y-54814535D01*
X221825840Y-54814535D02*
X221778220Y-54862154D01*
X221778220Y-54862154D02*
X221444887Y-54862154D01*
X221444887Y-54862154D02*
X221444887Y-54671678D01*
X221873459Y-55814535D02*
X221873459Y-55243107D01*
X221873459Y-55528821D02*
X220873459Y-55528821D01*
X220873459Y-55528821D02*
X221016316Y-55433583D01*
X221016316Y-55433583D02*
X221111554Y-55338345D01*
X221111554Y-55338345D02*
X221159173Y-55243107D01*
X222921078Y-54814535D02*
X222873459Y-54719297D01*
X222873459Y-54719297D02*
X222873459Y-54576440D01*
X222873459Y-54576440D02*
X222921078Y-54433583D01*
X222921078Y-54433583D02*
X223016316Y-54338345D01*
X223016316Y-54338345D02*
X223111554Y-54290726D01*
X223111554Y-54290726D02*
X223302030Y-54243107D01*
X223302030Y-54243107D02*
X223444887Y-54243107D01*
X223444887Y-54243107D02*
X223635363Y-54290726D01*
X223635363Y-54290726D02*
X223730601Y-54338345D01*
X223730601Y-54338345D02*
X223825840Y-54433583D01*
X223825840Y-54433583D02*
X223873459Y-54576440D01*
X223873459Y-54576440D02*
X223873459Y-54671678D01*
X223873459Y-54671678D02*
X223825840Y-54814535D01*
X223825840Y-54814535D02*
X223778220Y-54862154D01*
X223778220Y-54862154D02*
X223444887Y-54862154D01*
X223444887Y-54862154D02*
X223444887Y-54671678D01*
X222968697Y-55243107D02*
X222921078Y-55290726D01*
X222921078Y-55290726D02*
X222873459Y-55385964D01*
X222873459Y-55385964D02*
X222873459Y-55624059D01*
X222873459Y-55624059D02*
X222921078Y-55719297D01*
X222921078Y-55719297D02*
X222968697Y-55766916D01*
X222968697Y-55766916D02*
X223063935Y-55814535D01*
X223063935Y-55814535D02*
X223159173Y-55814535D01*
X223159173Y-55814535D02*
X223302030Y-55766916D01*
X223302030Y-55766916D02*
X223873459Y-55195488D01*
X223873459Y-55195488D02*
X223873459Y-55814535D01*
X227873459Y-54862154D02*
X227397268Y-54528821D01*
X227873459Y-54290726D02*
X226873459Y-54290726D01*
X226873459Y-54290726D02*
X226873459Y-54671678D01*
X226873459Y-54671678D02*
X226921078Y-54766916D01*
X226921078Y-54766916D02*
X226968697Y-54814535D01*
X226968697Y-54814535D02*
X227063935Y-54862154D01*
X227063935Y-54862154D02*
X227206792Y-54862154D01*
X227206792Y-54862154D02*
X227302030Y-54814535D01*
X227302030Y-54814535D02*
X227349649Y-54766916D01*
X227349649Y-54766916D02*
X227397268Y-54671678D01*
X227397268Y-54671678D02*
X227397268Y-54290726D01*
X227873459Y-55814535D02*
X227873459Y-55243107D01*
X227873459Y-55528821D02*
X226873459Y-55528821D01*
X226873459Y-55528821D02*
X227016316Y-55433583D01*
X227016316Y-55433583D02*
X227111554Y-55338345D01*
X227111554Y-55338345D02*
X227159173Y-55243107D01*
X225873459Y-54862154D02*
X225397268Y-54528821D01*
X225873459Y-54290726D02*
X224873459Y-54290726D01*
X224873459Y-54290726D02*
X224873459Y-54671678D01*
X224873459Y-54671678D02*
X224921078Y-54766916D01*
X224921078Y-54766916D02*
X224968697Y-54814535D01*
X224968697Y-54814535D02*
X225063935Y-54862154D01*
X225063935Y-54862154D02*
X225206792Y-54862154D01*
X225206792Y-54862154D02*
X225302030Y-54814535D01*
X225302030Y-54814535D02*
X225349649Y-54766916D01*
X225349649Y-54766916D02*
X225397268Y-54671678D01*
X225397268Y-54671678D02*
X225397268Y-54290726D01*
X224968697Y-55243107D02*
X224921078Y-55290726D01*
X224921078Y-55290726D02*
X224873459Y-55385964D01*
X224873459Y-55385964D02*
X224873459Y-55624059D01*
X224873459Y-55624059D02*
X224921078Y-55719297D01*
X224921078Y-55719297D02*
X224968697Y-55766916D01*
X224968697Y-55766916D02*
X225063935Y-55814535D01*
X225063935Y-55814535D02*
X225159173Y-55814535D01*
X225159173Y-55814535D02*
X225302030Y-55766916D01*
X225302030Y-55766916D02*
X225873459Y-55195488D01*
X225873459Y-55195488D02*
X225873459Y-55814535D01*
D11*
X204352620Y-150510763D02*
X203802287Y-150125530D01*
X204352620Y-149850363D02*
X203196920Y-149850363D01*
X203196920Y-149850363D02*
X203196920Y-150290630D01*
X203196920Y-150290630D02*
X203251953Y-150400697D01*
X203251953Y-150400697D02*
X203306987Y-150455730D01*
X203306987Y-150455730D02*
X203417053Y-150510763D01*
X203417053Y-150510763D02*
X203582153Y-150510763D01*
X203582153Y-150510763D02*
X203692220Y-150455730D01*
X203692220Y-150455730D02*
X203747253Y-150400697D01*
X203747253Y-150400697D02*
X203802287Y-150290630D01*
X203802287Y-150290630D02*
X203802287Y-149850363D01*
X204352620Y-151611430D02*
X204352620Y-150951030D01*
X204352620Y-151281230D02*
X203196920Y-151281230D01*
X203196920Y-151281230D02*
X203362020Y-151171163D01*
X203362020Y-151171163D02*
X203472087Y-151061097D01*
X203472087Y-151061097D02*
X203527120Y-150951030D01*
D12*
X72921078Y-54814535D02*
X72873459Y-54719297D01*
X72873459Y-54719297D02*
X72873459Y-54576440D01*
X72873459Y-54576440D02*
X72921078Y-54433583D01*
X72921078Y-54433583D02*
X73016316Y-54338345D01*
X73016316Y-54338345D02*
X73111554Y-54290726D01*
X73111554Y-54290726D02*
X73302030Y-54243107D01*
X73302030Y-54243107D02*
X73444887Y-54243107D01*
X73444887Y-54243107D02*
X73635363Y-54290726D01*
X73635363Y-54290726D02*
X73730601Y-54338345D01*
X73730601Y-54338345D02*
X73825840Y-54433583D01*
X73825840Y-54433583D02*
X73873459Y-54576440D01*
X73873459Y-54576440D02*
X73873459Y-54671678D01*
X73873459Y-54671678D02*
X73825840Y-54814535D01*
X73825840Y-54814535D02*
X73778220Y-54862154D01*
X73778220Y-54862154D02*
X73444887Y-54862154D01*
X73444887Y-54862154D02*
X73444887Y-54671678D01*
X72968697Y-55243107D02*
X72921078Y-55290726D01*
X72921078Y-55290726D02*
X72873459Y-55385964D01*
X72873459Y-55385964D02*
X72873459Y-55624059D01*
X72873459Y-55624059D02*
X72921078Y-55719297D01*
X72921078Y-55719297D02*
X72968697Y-55766916D01*
X72968697Y-55766916D02*
X73063935Y-55814535D01*
X73063935Y-55814535D02*
X73159173Y-55814535D01*
X73159173Y-55814535D02*
X73302030Y-55766916D01*
X73302030Y-55766916D02*
X73873459Y-55195488D01*
X73873459Y-55195488D02*
X73873459Y-55814535D01*
X77873459Y-54766916D02*
X77873459Y-54290726D01*
X77873459Y-54290726D02*
X76873459Y-54290726D01*
X77873459Y-55624059D02*
X77873459Y-55052631D01*
X77873459Y-55338345D02*
X76873459Y-55338345D01*
X76873459Y-55338345D02*
X77016316Y-55243107D01*
X77016316Y-55243107D02*
X77111554Y-55147869D01*
X77111554Y-55147869D02*
X77159173Y-55052631D01*
X75873459Y-54766916D02*
X75873459Y-54290726D01*
X75873459Y-54290726D02*
X74873459Y-54290726D01*
X74968697Y-55052631D02*
X74921078Y-55100250D01*
X74921078Y-55100250D02*
X74873459Y-55195488D01*
X74873459Y-55195488D02*
X74873459Y-55433583D01*
X74873459Y-55433583D02*
X74921078Y-55528821D01*
X74921078Y-55528821D02*
X74968697Y-55576440D01*
X74968697Y-55576440D02*
X75063935Y-55624059D01*
X75063935Y-55624059D02*
X75159173Y-55624059D01*
X75159173Y-55624059D02*
X75302030Y-55576440D01*
X75302030Y-55576440D02*
X75873459Y-55005012D01*
X75873459Y-55005012D02*
X75873459Y-55624059D01*
X70921078Y-54814535D02*
X70873459Y-54719297D01*
X70873459Y-54719297D02*
X70873459Y-54576440D01*
X70873459Y-54576440D02*
X70921078Y-54433583D01*
X70921078Y-54433583D02*
X71016316Y-54338345D01*
X71016316Y-54338345D02*
X71111554Y-54290726D01*
X71111554Y-54290726D02*
X71302030Y-54243107D01*
X71302030Y-54243107D02*
X71444887Y-54243107D01*
X71444887Y-54243107D02*
X71635363Y-54290726D01*
X71635363Y-54290726D02*
X71730601Y-54338345D01*
X71730601Y-54338345D02*
X71825840Y-54433583D01*
X71825840Y-54433583D02*
X71873459Y-54576440D01*
X71873459Y-54576440D02*
X71873459Y-54671678D01*
X71873459Y-54671678D02*
X71825840Y-54814535D01*
X71825840Y-54814535D02*
X71778220Y-54862154D01*
X71778220Y-54862154D02*
X71444887Y-54862154D01*
X71444887Y-54862154D02*
X71444887Y-54671678D01*
X71873459Y-55814535D02*
X71873459Y-55243107D01*
X71873459Y-55528821D02*
X70873459Y-55528821D01*
X70873459Y-55528821D02*
X71016316Y-55433583D01*
X71016316Y-55433583D02*
X71111554Y-55338345D01*
X71111554Y-55338345D02*
X71159173Y-55243107D01*
D13*
X158350000Y-148391800D02*
X158350000Y-152201800D01*
X157715000Y-152836800D02*
X158350000Y-152201800D01*
X157715000Y-147756800D02*
X158350000Y-148391800D01*
D14*
X156445000Y-153217800D02*
X157715000Y-153217800D01*
D13*
X156445000Y-152836800D02*
X157715000Y-152836800D01*
X156445000Y-147756800D02*
X157715000Y-147756800D01*
X155810000Y-152201800D02*
X156445000Y-152836800D01*
X155810000Y-152201800D02*
X155810000Y-148391800D01*
X155810000Y-148391800D02*
X156445000Y-147756800D01*
X155175000Y-152836800D02*
X155810000Y-152201800D01*
X155175000Y-147756800D02*
X155810000Y-148391800D01*
X153905000Y-152836800D02*
X155175000Y-152836800D01*
X153905000Y-147756800D02*
X155175000Y-147756800D01*
X153270000Y-152201800D02*
X153905000Y-152836800D01*
X153270000Y-152201800D02*
X153270000Y-148391800D01*
X153270000Y-148391800D02*
X153905000Y-147756800D01*
X152635000Y-152836800D02*
X153270000Y-152201800D01*
X152635000Y-147756800D02*
X153270000Y-148391800D01*
X151365000Y-152836800D02*
X152635000Y-152836800D01*
X151365000Y-147756800D02*
X152635000Y-147756800D01*
X150730000Y-152201800D02*
X151365000Y-152836800D01*
X150730000Y-152201800D02*
X150730000Y-148391800D01*
X150730000Y-148391800D02*
X151365000Y-147756800D01*
X150095000Y-152836800D02*
X150730000Y-152201800D01*
X150095000Y-147756800D02*
X150730000Y-148391800D01*
X148825000Y-152836800D02*
X150095000Y-152836800D01*
X148825000Y-147756800D02*
X150095000Y-147756800D01*
X148190000Y-152201800D02*
X148825000Y-152836800D01*
X148190000Y-152201800D02*
X148190000Y-148391800D01*
X148190000Y-148391800D02*
X148825000Y-147756800D01*
X147555000Y-152836800D02*
X148190000Y-152201800D01*
X147555000Y-147756800D02*
X148190000Y-148391800D01*
X146285000Y-152836800D02*
X147555000Y-152836800D01*
X146285000Y-147756800D02*
X147555000Y-147756800D01*
X145650000Y-152201800D02*
X146285000Y-152836800D01*
X145650000Y-152201800D02*
X145650000Y-148391800D01*
X145650000Y-148391800D02*
X146285000Y-147756800D01*
X198357000Y-147960000D02*
X198357000Y-147579000D01*
X198357000Y-147960000D02*
X198484000Y-148087000D01*
X198357000Y-153040000D02*
X198357000Y-153421000D01*
X198357000Y-153040000D02*
X198484000Y-152913000D01*
X198484000Y-148087000D02*
X198484000Y-152913000D01*
X200516000Y-148087000D02*
X200516000Y-152913000D01*
X200643000Y-147960000D02*
X200516000Y-148087000D01*
X200643000Y-147960000D02*
X200643000Y-147579000D01*
X200643000Y-153040000D02*
X200516000Y-152913000D01*
X200643000Y-153040000D02*
X200643000Y-153421000D01*
X198357000Y-147579000D02*
G75*
G02*
X198611000Y-147325000I254000J0D01*
G01*
X198611000Y-153675000D02*
G75*
G02*
X198357000Y-153421000I0J254000D01*
G01*
X200389000Y-147325000D02*
G75*
G02*
X200643000Y-147579000I0J-254000D01*
G01*
X200643000Y-153421000D02*
G75*
G02*
X200389000Y-153675000I-254000J0D01*
G01*
D15*
X224500000Y-50000000D02*
X223500000Y-51000000D01*
X225500000Y-51000000D02*
X224500000Y-50000000D01*
D13*
X202857000Y-147960000D02*
X202857000Y-147579000D01*
X202857000Y-147960000D02*
X202984000Y-148087000D01*
X202857000Y-153040000D02*
X202857000Y-153421000D01*
X202857000Y-153040000D02*
X202984000Y-152913000D01*
X202984000Y-148087000D02*
X202984000Y-152913000D01*
X205016000Y-148087000D02*
X205016000Y-152913000D01*
X205143000Y-147960000D02*
X205016000Y-148087000D01*
X205143000Y-147960000D02*
X205143000Y-147579000D01*
X205143000Y-153040000D02*
X205016000Y-152913000D01*
X205143000Y-153040000D02*
X205143000Y-153421000D01*
X202857000Y-147579000D02*
G75*
G02*
X203111000Y-147325000I254000J0D01*
G01*
X203111000Y-153675000D02*
G75*
G02*
X202857000Y-153421000I0J254000D01*
G01*
X204889000Y-147325000D02*
G75*
G02*
X205143000Y-147579000I0J-254000D01*
G01*
X205143000Y-153421000D02*
G75*
G02*
X204889000Y-153675000I-254000J0D01*
G01*
D15*
X74500000Y-50000000D02*
X73500000Y-51000000D01*
X75500000Y-51000000D02*
X74500000Y-50000000D01*
%LPC*%
D16*
X215248800Y-64239400D03*
X221751200Y-64239400D03*
X215248800Y-68760600D03*
X221751200Y-68760600D03*
X74748800Y-65739400D03*
X81251200Y-65739400D03*
X74748800Y-70260600D03*
X81251200Y-70260600D03*
X240748800Y-64239400D03*
X247251200Y-64239400D03*
X240748800Y-68760600D03*
X247251200Y-68760600D03*
X229748800Y-78739400D03*
X236251200Y-78739400D03*
X229748800Y-83260600D03*
X236251200Y-83260600D03*
X65251200Y-110260600D03*
X58748800Y-110260600D03*
X65251200Y-105739400D03*
X58748800Y-105739400D03*
X223248800Y-85739400D03*
X229751200Y-85739400D03*
X223248800Y-90260600D03*
X229751200Y-90260600D03*
X65251200Y-124260600D03*
X58748800Y-124260600D03*
X65251200Y-119739400D03*
X58748800Y-119739400D03*
X229748800Y-92739400D03*
X236251200Y-92739400D03*
X229748800Y-97260600D03*
X236251200Y-97260600D03*
D17*
X242975000Y-116175000D03*
D18*
X242975000Y-110175000D03*
X242975000Y-114175000D03*
X242975000Y-108175000D03*
X242975000Y-112175000D03*
X242975000Y-106175000D03*
D19*
X237875000Y-119975000D03*
X237425000Y-103925000D03*
X224075000Y-107075000D03*
X221225000Y-121975000D03*
D16*
X58751200Y-117260600D03*
X52248800Y-117260600D03*
X58751200Y-112739400D03*
X52248800Y-112739400D03*
X236248800Y-85739400D03*
X242751200Y-85739400D03*
X236248800Y-90260600D03*
X242751200Y-90260600D03*
D20*
X101990000Y-147190000D03*
X104530000Y-147190000D03*
X107070000Y-147190000D03*
X109610000Y-147190000D03*
X112150000Y-147190000D03*
X114690000Y-147190000D03*
X117230000Y-147190000D03*
X119770000Y-147190000D03*
X122310000Y-147190000D03*
X124850000Y-147190000D03*
X127390000Y-147190000D03*
X129930000Y-147190000D03*
X132470000Y-147190000D03*
X135010000Y-147190000D03*
X135010000Y-154810000D03*
X132470000Y-154810000D03*
X129930000Y-154810000D03*
X127390000Y-154810000D03*
X124850000Y-154810000D03*
X122310000Y-154810000D03*
X119770000Y-154810000D03*
X117230000Y-154810000D03*
X114690000Y-154810000D03*
X112150000Y-154810000D03*
X109610000Y-154810000D03*
X107070000Y-154810000D03*
X104530000Y-154810000D03*
X101990000Y-154810000D03*
D16*
X71751200Y-117260600D03*
X65248800Y-117260600D03*
X71751200Y-112739400D03*
X65248800Y-112739400D03*
D19*
X53725000Y-95975000D03*
X56575000Y-81075000D03*
X69925000Y-77925000D03*
X70375000Y-93975000D03*
D18*
X75475000Y-80175000D03*
X75475000Y-86175000D03*
X75475000Y-82175000D03*
X75475000Y-88175000D03*
X75475000Y-84175000D03*
X75475000Y-90175000D03*
D20*
X173481100Y-154243600D03*
X176021100Y-154243600D03*
X178561100Y-154243600D03*
X181101100Y-154243600D03*
X183641100Y-154243600D03*
X186181100Y-154243600D03*
X188721100Y-154243600D03*
X191261100Y-154243600D03*
X191261100Y-146623600D03*
X188721100Y-146623600D03*
X186181100Y-146623600D03*
X183641100Y-146623600D03*
X181101100Y-146623600D03*
X178561100Y-146623600D03*
X176021100Y-146623600D03*
X173481100Y-146623600D03*
D16*
X146920000Y-149026800D03*
X146920000Y-151566800D03*
X149460000Y-149026800D03*
X149460000Y-151566800D03*
X152000000Y-149026800D03*
X152000000Y-151566800D03*
X154540000Y-149026800D03*
X154540000Y-151566800D03*
X157080000Y-149026800D03*
X157080000Y-151566800D03*
D21*
X199500000Y-146690000D03*
X199500000Y-154310000D03*
D22*
X220500000Y-50000000D03*
X220500000Y-57500000D03*
X228500000Y-50000000D03*
X228500000Y-57500000D03*
D18*
X221500000Y-53000000D03*
X223500000Y-53000000D03*
X227500000Y-53000000D03*
X225500000Y-53000000D03*
D21*
X204000000Y-146690000D03*
X204000000Y-154310000D03*
D22*
X70500000Y-50000000D03*
X70500000Y-57500000D03*
X78500000Y-50000000D03*
X78500000Y-57500000D03*
D18*
X71500000Y-53000000D03*
X73500000Y-53000000D03*
X77500000Y-53000000D03*
X75500000Y-53000000D03*
%LPD*%
M02*
