G04 #@! TF.GenerationSoftware,KiCad,Pcbnew,8.0.8*
G04 #@! TF.CreationDate,2025-02-09T13:36:47-06:00*
G04 #@! TF.ProjectId,gamepad,67616d65-7061-4642-9e6b-696361645f70,3*
G04 #@! TF.SameCoordinates,Original*
G04 #@! TF.FileFunction,Copper,L2,Bot*
G04 #@! TF.FilePolarity,Positive*
%FSLAX46Y46*%
G04 Gerber Fmt 4.6, Leading zero omitted, Abs format (unit mm)*
G04 Created by KiCad (PCBNEW 8.0.8) date 2025-02-09 13:36:47*
%MOMM*%
%LPD*%
G01*
G04 APERTURE LIST*
G04 Aperture macros list*
%AMOutline5P*
0 Free polygon, 5 corners , with rotation*
0 The origin of the aperture is its center*
0 number of corners: always 5*
0 $1 to $10 corner X, Y*
0 $11 Rotation angle, in degrees counterclockwise*
0 create outline with 5 corners*
4,1,5,$1,$2,$3,$4,$5,$6,$7,$8,$9,$10,$1,$2,$11*%
%AMOutline6P*
0 Free polygon, 6 corners , with rotation*
0 The origin of the aperture is its center*
0 number of corners: always 6*
0 $1 to $12 corner X, Y*
0 $13 Rotation angle, in degrees counterclockwise*
0 create outline with 6 corners*
4,1,6,$1,$2,$3,$4,$5,$6,$7,$8,$9,$10,$11,$12,$1,$2,$13*%
%AMOutline7P*
0 Free polygon, 7 corners , with rotation*
0 The origin of the aperture is its center*
0 number of corners: always 7*
0 $1 to $14 corner X, Y*
0 $15 Rotation angle, in degrees counterclockwise*
0 create outline with 7 corners*
4,1,7,$1,$2,$3,$4,$5,$6,$7,$8,$9,$10,$11,$12,$13,$14,$1,$2,$15*%
%AMOutline8P*
0 Free polygon, 8 corners , with rotation*
0 The origin of the aperture is its center*
0 number of corners: always 8*
0 $1 to $16 corner X, Y*
0 $17 Rotation angle, in degrees counterclockwise*
0 create outline with 8 corners*
4,1,8,$1,$2,$3,$4,$5,$6,$7,$8,$9,$10,$11,$12,$13,$14,$15,$16,$1,$2,$17*%
G04 Aperture macros list end*
G04 #@! TA.AperFunction,ComponentPad*
%ADD10C,1.879600*%
G04 #@! TD*
G04 #@! TA.AperFunction,ComponentPad*
%ADD11C,1.800000*%
G04 #@! TD*
G04 #@! TA.AperFunction,ComponentPad*
%ADD12O,1.320800X2.641600*%
G04 #@! TD*
G04 #@! TA.AperFunction,ComponentPad*
%ADD13Outline8P,-0.660400X0.273547X-0.273547X0.660400X0.273547X0.660400X0.660400X0.273547X0.660400X-0.273547X0.273547X-0.660400X-0.273547X-0.660400X-0.660400X-0.273547X270.000000*%
G04 #@! TD*
G04 #@! TA.AperFunction,ViaPad*
%ADD14C,0.600000*%
G04 #@! TD*
G04 #@! TA.AperFunction,Conductor*
%ADD15C,0.200000*%
G04 #@! TD*
G04 APERTURE END LIST*
D10*
X215248800Y-64239400D03*
X221751200Y-64239400D03*
X215248800Y-68760600D03*
X221751200Y-68760600D03*
X74748800Y-65739400D03*
X81251200Y-65739400D03*
X74748800Y-70260600D03*
X81251200Y-70260600D03*
X240748800Y-64239400D03*
X247251200Y-64239400D03*
X240748800Y-68760600D03*
X247251200Y-68760600D03*
X229748800Y-78739400D03*
X236251200Y-78739400D03*
X229748800Y-83260600D03*
X236251200Y-83260600D03*
X65251200Y-110260600D03*
X58748800Y-110260600D03*
X65251200Y-105739400D03*
X58748800Y-105739400D03*
X223248800Y-85739400D03*
X229751200Y-85739400D03*
X223248800Y-90260600D03*
X229751200Y-90260600D03*
X65251200Y-124260600D03*
X58748800Y-124260600D03*
X65251200Y-119739400D03*
X58748800Y-119739400D03*
X229748800Y-92739400D03*
X236251200Y-92739400D03*
X229748800Y-97260600D03*
X236251200Y-97260600D03*
D11*
X242975000Y-116175000D03*
X242975000Y-110175000D03*
X242975000Y-114175000D03*
X242975000Y-108175000D03*
X242975000Y-112175000D03*
X242975000Y-106175000D03*
D10*
X58751200Y-117260600D03*
X52248800Y-117260600D03*
X58751200Y-112739400D03*
X52248800Y-112739400D03*
X236248800Y-85739400D03*
X242751200Y-85739400D03*
X236248800Y-90260600D03*
X242751200Y-90260600D03*
D12*
X101990000Y-147190000D03*
X104530000Y-147190000D03*
X107070000Y-147190000D03*
X109610000Y-147190000D03*
X112150000Y-147190000D03*
X114690000Y-147190000D03*
X117230000Y-147190000D03*
X119770000Y-147190000D03*
X122310000Y-147190000D03*
X124850000Y-147190000D03*
X127390000Y-147190000D03*
X129930000Y-147190000D03*
X132470000Y-147190000D03*
X135010000Y-147190000D03*
X135010000Y-154810000D03*
X132470000Y-154810000D03*
X129930000Y-154810000D03*
X127390000Y-154810000D03*
X124850000Y-154810000D03*
X122310000Y-154810000D03*
X119770000Y-154810000D03*
X117230000Y-154810000D03*
X114690000Y-154810000D03*
X112150000Y-154810000D03*
X109610000Y-154810000D03*
X107070000Y-154810000D03*
X104530000Y-154810000D03*
X101990000Y-154810000D03*
D10*
X71751200Y-117260600D03*
X65248800Y-117260600D03*
X71751200Y-112739400D03*
X65248800Y-112739400D03*
D11*
X75475000Y-80175000D03*
X75475000Y-86175000D03*
X75475000Y-82175000D03*
X75475000Y-88175000D03*
X75475000Y-84175000D03*
X75475000Y-90175000D03*
D12*
X173481100Y-154243600D03*
X176021100Y-154243600D03*
X178561100Y-154243600D03*
X181101100Y-154243600D03*
X183641100Y-154243600D03*
X186181100Y-154243600D03*
X188721100Y-154243600D03*
X191261100Y-154243600D03*
X191261100Y-146623600D03*
X188721100Y-146623600D03*
X186181100Y-146623600D03*
X183641100Y-146623600D03*
X181101100Y-146623600D03*
X178561100Y-146623600D03*
X176021100Y-146623600D03*
X173481100Y-146623600D03*
D10*
X146920000Y-149026800D03*
X146920000Y-151566800D03*
X149460000Y-149026800D03*
X149460000Y-151566800D03*
X152000000Y-149026800D03*
X152000000Y-151566800D03*
X154540000Y-149026800D03*
X154540000Y-151566800D03*
X157080000Y-149026800D03*
X157080000Y-151566800D03*
D13*
X199500000Y-146690000D03*
X199500000Y-154310000D03*
D11*
X221500000Y-53000000D03*
X223500000Y-53000000D03*
X227500000Y-53000000D03*
X225500000Y-53000000D03*
D13*
X204000000Y-146690000D03*
X204000000Y-154310000D03*
D11*
X71500000Y-53000000D03*
X73500000Y-53000000D03*
X77500000Y-53000000D03*
X75500000Y-53000000D03*
D14*
X79500000Y-105000000D03*
X82000000Y-105000000D03*
X71500000Y-138000000D03*
X224500000Y-141500000D03*
X230500000Y-140000000D03*
X80000000Y-73500000D03*
X78000000Y-73500000D03*
X217500000Y-74500000D03*
X225500000Y-56500000D03*
X218500000Y-73947600D03*
X171000000Y-156500000D03*
X157080000Y-154500000D03*
X128500000Y-145500000D03*
X75500000Y-103000000D03*
X171500000Y-147000000D03*
X233000000Y-137000000D03*
X168750000Y-149750000D03*
X193000000Y-151000000D03*
X206500000Y-154500000D03*
X206500000Y-151000000D03*
X150500000Y-156552400D03*
X148500000Y-156552400D03*
X76500000Y-59500000D03*
D15*
X227500000Y-53000000D02*
X227500000Y-52500000D01*
X227000000Y-53500000D02*
X227500000Y-53000000D01*
X227000000Y-66500000D02*
X227000000Y-53500000D01*
X219000000Y-74500000D02*
X227000000Y-66500000D01*
X217500000Y-74500000D02*
X219000000Y-74500000D01*
X225500000Y-56500000D02*
X225500000Y-67500000D01*
X218552400Y-74000000D02*
X218500000Y-73947600D01*
X219000000Y-74000000D02*
X218552400Y-74000000D01*
X225500000Y-67500000D02*
X219000000Y-74000000D01*
X76500000Y-54000000D02*
X77500000Y-53000000D01*
X76500000Y-59500000D02*
X76500000Y-54000000D01*
X226000000Y-140000000D02*
X230500000Y-140000000D01*
X224500000Y-141500000D02*
X226000000Y-140000000D01*
X211314896Y-145500000D02*
X198500000Y-145500000D01*
X198500000Y-145500000D02*
X193000000Y-151000000D01*
X221019696Y-135795200D02*
X211314896Y-145500000D01*
X240795200Y-127426852D02*
X232426852Y-135795200D01*
X242975000Y-106175000D02*
X240795200Y-108354800D01*
X240795200Y-108354800D02*
X240795200Y-127426852D01*
X232426852Y-135795200D02*
X221019696Y-135795200D01*
X221165664Y-136147600D02*
X210623264Y-146690000D01*
X210623264Y-146690000D02*
X204000000Y-146690000D01*
X241147600Y-127572820D02*
X232572820Y-136147600D01*
X241147600Y-112002400D02*
X241147600Y-127572820D01*
X242975000Y-110175000D02*
X241147600Y-112002400D01*
X232572820Y-136147600D02*
X221165664Y-136147600D01*
X241500000Y-113650000D02*
X242975000Y-112175000D01*
X232718788Y-136500000D02*
X241500000Y-127718788D01*
X241500000Y-127718788D02*
X241500000Y-113650000D01*
X206811632Y-151000000D02*
X221311632Y-136500000D01*
X206500000Y-151000000D02*
X206811632Y-151000000D01*
X221311632Y-136500000D02*
X232718788Y-136500000D01*
X53500000Y-116009400D02*
X52248800Y-117260600D01*
X53500000Y-116000000D02*
X53500000Y-116009400D01*
X61000000Y-115500000D02*
X54000000Y-115500000D01*
X54000000Y-115500000D02*
X53500000Y-116000000D01*
X61500000Y-134000000D02*
X61500000Y-116000000D01*
X66000000Y-138500000D02*
X61500000Y-134000000D01*
X71500000Y-138000000D02*
X71000000Y-138500000D01*
X71000000Y-138500000D02*
X66000000Y-138500000D01*
X61500000Y-116000000D02*
X61000000Y-115500000D01*
X242975000Y-105675000D02*
X242325000Y-105675000D01*
X77500000Y-105000000D02*
X75500000Y-103000000D01*
X79500000Y-105000000D02*
X77500000Y-105000000D01*
X81352400Y-105647600D02*
X82000000Y-105000000D01*
X84500000Y-143500000D02*
X81352400Y-140352400D01*
X81352400Y-140352400D02*
X81352400Y-105647600D01*
X126500000Y-143500000D02*
X84500000Y-143500000D01*
X128500000Y-145500000D02*
X126500000Y-143500000D01*
X172672300Y-155052400D02*
X173481100Y-154243600D01*
X140001632Y-155500000D02*
X140449232Y-155052400D01*
X138000000Y-157500000D02*
X140000000Y-155500000D01*
X101000000Y-157500000D02*
X138000000Y-157500000D01*
X100000000Y-156500000D02*
X101000000Y-157500000D01*
X99293569Y-144795200D02*
X100000000Y-145501631D01*
X140000000Y-155500000D02*
X140001632Y-155500000D01*
X100000000Y-145501631D02*
X100000000Y-156500000D01*
X85295200Y-144795200D02*
X99293569Y-144795200D01*
X81000000Y-80500000D02*
X81000000Y-140500000D01*
X80500000Y-80000000D02*
X81000000Y-80500000D01*
X81000000Y-140500000D02*
X85295200Y-144795200D01*
X75650000Y-80000000D02*
X80500000Y-80000000D01*
X75475000Y-80175000D02*
X75650000Y-80000000D01*
X140449232Y-155052400D02*
X172672300Y-155052400D01*
X178000000Y-156500000D02*
X178561100Y-155938900D01*
X173000000Y-156500000D02*
X178000000Y-156500000D01*
X172000000Y-155500000D02*
X173000000Y-156500000D01*
X140500000Y-155500000D02*
X172000000Y-155500000D01*
X138147600Y-157852400D02*
X140500000Y-155500000D01*
X100852400Y-157852400D02*
X138147600Y-157852400D01*
X85147600Y-145147600D02*
X99147600Y-145147600D01*
X80609600Y-84609600D02*
X80609600Y-140609600D01*
X178561100Y-155938900D02*
X178561100Y-154243600D01*
X80609600Y-140609600D02*
X85147600Y-145147600D01*
X80175000Y-84175000D02*
X80609600Y-84609600D01*
X99647600Y-145647600D02*
X99647600Y-156647600D01*
X99147600Y-145147600D02*
X99647600Y-145647600D01*
X75475000Y-84175000D02*
X80175000Y-84175000D01*
X99647600Y-156647600D02*
X100852400Y-157852400D01*
X170500000Y-156000000D02*
X171000000Y-156500000D01*
X138295200Y-158204800D02*
X140500000Y-156000000D01*
X100706431Y-158204800D02*
X138295200Y-158204800D01*
X100501631Y-158000000D02*
X100706431Y-158204800D01*
X100500000Y-158000000D02*
X100501631Y-158000000D01*
X99295200Y-156795200D02*
X100500000Y-158000000D01*
X99295200Y-145795200D02*
X99295200Y-156795200D01*
X80257200Y-140757200D02*
X85000000Y-145500000D01*
X79500000Y-86000000D02*
X80257200Y-86757200D01*
X140500000Y-156000000D02*
X170500000Y-156000000D01*
X75650000Y-86000000D02*
X79500000Y-86000000D01*
X99000000Y-145500000D02*
X99295200Y-145795200D01*
X85000000Y-145500000D02*
X99000000Y-145500000D01*
X75475000Y-86175000D02*
X75650000Y-86000000D01*
X80257200Y-86757200D02*
X80257200Y-140757200D01*
X150500000Y-156552400D02*
X148500000Y-156552400D01*
X80000000Y-73500000D02*
X78000000Y-73500000D01*
X195808394Y-151647600D02*
X178913500Y-151647600D01*
X178913500Y-151647600D02*
X178561100Y-152000000D01*
X178561100Y-152000000D02*
X178561100Y-154243600D01*
X199500000Y-146690000D02*
X199500000Y-147955994D01*
X199500000Y-147955994D02*
X195808394Y-151647600D01*
X136000000Y-145000000D02*
X129000000Y-145000000D01*
X137000000Y-152500000D02*
X137000000Y-146000000D01*
X221310000Y-137000000D02*
X204000000Y-154310000D01*
X233000000Y-137000000D02*
X221310000Y-137000000D01*
X139000000Y-154500000D02*
X137000000Y-152500000D01*
X164000000Y-154500000D02*
X157080000Y-154500000D01*
X171500000Y-147000000D02*
X168750000Y-149750000D01*
X137000000Y-146000000D02*
X136000000Y-145000000D01*
X129000000Y-145000000D02*
X128500000Y-145500000D01*
X168750000Y-149750000D02*
X164000000Y-154500000D01*
X157080000Y-154500000D02*
X139000000Y-154500000D01*
X185214300Y-155816800D02*
X205183200Y-155816800D01*
X205183200Y-155816800D02*
X206500000Y-154500000D01*
X183641100Y-154243600D02*
X185214300Y-155816800D01*
X186181100Y-152500000D02*
X186181100Y-154243600D01*
X204000000Y-146690000D02*
X198690000Y-152000000D01*
X198690000Y-152000000D02*
X186681100Y-152000000D01*
X186681100Y-152000000D02*
X186181100Y-152500000D01*
M02*
