%TF.GenerationSoftware,KiCad,Pcbnew,8.0.8*%
%TF.CreationDate,2025-02-09T13:37:15-06:00*%
%TF.ProjectId,gamepad,67616d65-7061-4642-9e6b-696361645f70,3*%
%TF.SameCoordinates,Original*%
%TF.FileFunction,Drillmap*%
%TF.FilePolarity,Positive*%
%FSLAX45Y45*%
G04 Gerber Fmt 4.5, Leading zero omitted, Abs format (unit mm)*
G04 Created by KiCad (PCBNEW 8.0.8) date 2025-02-09 13:37:15*
%MOMM*%
%LPD*%
G01*
G04 APERTURE LIST*
%ADD10C,0.050000*%
%ADD11C,0.200000*%
%ADD12C,0.150000*%
%ADD13C,0.180000*%
G04 APERTURE END LIST*
D10*
X25435000Y-7700000D02*
G75*
G02*
X25165000Y-7700000I-135000J0D01*
G01*
X25165000Y-7700000D02*
G75*
G02*
X25435000Y-7700000I135000J0D01*
G01*
X21435000Y-7700000D02*
G75*
G02*
X21165000Y-7700000I-135000J0D01*
G01*
X21165000Y-7700000D02*
G75*
G02*
X21435000Y-7700000I135000J0D01*
G01*
X8535000Y-7700000D02*
G75*
G02*
X8265000Y-7700000I-135000J0D01*
G01*
X8265000Y-7700000D02*
G75*
G02*
X8535000Y-7700000I135000J0D01*
G01*
X23635000Y-5000000D02*
G75*
G02*
X23365000Y-5000000I-135000J0D01*
G01*
X23365000Y-5000000D02*
G75*
G02*
X23635000Y-5000000I135000J0D01*
G01*
X21435000Y-5000000D02*
G75*
G02*
X21165000Y-5000000I-135000J0D01*
G01*
X21165000Y-5000000D02*
G75*
G02*
X21435000Y-5000000I135000J0D01*
G01*
X25435000Y-12400000D02*
G75*
G02*
X25165000Y-12400000I-135000J0D01*
G01*
X25165000Y-12400000D02*
G75*
G02*
X25435000Y-12400000I135000J0D01*
G01*
X21435000Y-12400000D02*
G75*
G02*
X21165000Y-12400000I-135000J0D01*
G01*
X21165000Y-12400000D02*
G75*
G02*
X21435000Y-12400000I135000J0D01*
G01*
X8535000Y-12400000D02*
G75*
G02*
X8265000Y-12400000I-135000J0D01*
G01*
X8265000Y-12400000D02*
G75*
G02*
X8535000Y-12400000I135000J0D01*
G01*
X21035000Y-15950000D02*
G75*
G02*
X20765000Y-15950000I-135000J0D01*
G01*
X20765000Y-15950000D02*
G75*
G02*
X21035000Y-15950000I135000J0D01*
G01*
X8935000Y-15950000D02*
G75*
G02*
X8665000Y-15950000I-135000J0D01*
G01*
X8665000Y-15950000D02*
G75*
G02*
X8935000Y-15950000I135000J0D01*
G01*
X4535000Y-12400000D02*
G75*
G02*
X4265000Y-12400000I-135000J0D01*
G01*
X4265000Y-12400000D02*
G75*
G02*
X4535000Y-12400000I135000J0D01*
G01*
X4535000Y-7700000D02*
G75*
G02*
X4265000Y-7700000I-135000J0D01*
G01*
X4265000Y-7700000D02*
G75*
G02*
X4535000Y-7700000I135000J0D01*
G01*
X6385000Y-5000000D02*
G75*
G02*
X6115000Y-5000000I-135000J0D01*
G01*
X6115000Y-5000000D02*
G75*
G02*
X6385000Y-5000000I135000J0D01*
G01*
X8535000Y-5000000D02*
G75*
G02*
X8265000Y-5000000I-135000J0D01*
G01*
X8265000Y-5000000D02*
G75*
G02*
X8535000Y-5000000I135000J0D01*
G01*
X4674110Y-5734360D02*
X4150110Y-6836360D01*
X8650110Y-16207360D02*
X21050110Y-16207360D01*
X4150110Y-6836360D02*
X4150110Y-12516360D01*
X8650110Y-16207360D02*
X4150110Y-12516360D01*
X8650110Y-4793360D02*
X6149110Y-4793360D01*
X6149110Y-4793360D02*
X4674110Y-5734360D01*
X21050110Y-13793360D02*
X8650110Y-13793360D01*
X25026110Y-5734360D02*
X23551110Y-4793360D01*
X25550110Y-6836360D02*
X25026110Y-5734360D01*
X8650110Y-13793360D02*
X8650110Y-4793360D01*
X25550110Y-12516360D02*
X25550110Y-6836360D01*
X23551110Y-4793360D02*
X21050110Y-4793360D01*
X21050110Y-16207360D02*
X25550110Y-12516360D01*
X21050110Y-4793360D02*
X21050110Y-13793360D01*
D11*
D12*
X6975000Y-4925000D02*
X7125000Y-5075000D01*
X7125000Y-4925000D02*
X6975000Y-5075000D01*
X6975000Y-5675000D02*
X7125000Y-5825000D01*
X7125000Y-5675000D02*
X6975000Y-5825000D01*
X7775000Y-4925000D02*
X7925000Y-5075000D01*
X7925000Y-4925000D02*
X7775000Y-5075000D01*
X7775000Y-5675000D02*
X7925000Y-5825000D01*
X7925000Y-5675000D02*
X7775000Y-5825000D01*
X21975000Y-4925000D02*
X22125000Y-5075000D01*
X22125000Y-4925000D02*
X21975000Y-5075000D01*
X21975000Y-5675000D02*
X22125000Y-5825000D01*
X22125000Y-5675000D02*
X21975000Y-5825000D01*
X22775000Y-4925000D02*
X22925000Y-5075000D01*
X22925000Y-4925000D02*
X22775000Y-5075000D01*
X22775000Y-5675000D02*
X22925000Y-5825000D01*
X22925000Y-5675000D02*
X22775000Y-5825000D01*
D13*
X5462500Y-9597500D02*
G75*
G02*
X5282500Y-9597500I-90000J0D01*
G01*
X5282500Y-9597500D02*
G75*
G02*
X5462500Y-9597500I90000J0D01*
G01*
X5747500Y-8107500D02*
G75*
G02*
X5567500Y-8107500I-90000J0D01*
G01*
X5567500Y-8107500D02*
G75*
G02*
X5747500Y-8107500I90000J0D01*
G01*
X7082500Y-7792500D02*
G75*
G02*
X6902500Y-7792500I-90000J0D01*
G01*
X6902500Y-7792500D02*
G75*
G02*
X7082500Y-7792500I90000J0D01*
G01*
X7127500Y-9397500D02*
G75*
G02*
X6947500Y-9397500I-90000J0D01*
G01*
X6947500Y-9397500D02*
G75*
G02*
X7127500Y-9397500I90000J0D01*
G01*
X22212500Y-12197500D02*
G75*
G02*
X22032500Y-12197500I-90000J0D01*
G01*
X22032500Y-12197500D02*
G75*
G02*
X22212500Y-12197500I90000J0D01*
G01*
X22497500Y-10707500D02*
G75*
G02*
X22317500Y-10707500I-90000J0D01*
G01*
X22317500Y-10707500D02*
G75*
G02*
X22497500Y-10707500I90000J0D01*
G01*
X23832500Y-10392500D02*
G75*
G02*
X23652500Y-10392500I-90000J0D01*
G01*
X23652500Y-10392500D02*
G75*
G02*
X23832500Y-10392500I90000J0D01*
G01*
X23877500Y-11997500D02*
G75*
G02*
X23697500Y-11997500I-90000J0D01*
G01*
X23697500Y-11997500D02*
G75*
G02*
X23877500Y-11997500I90000J0D01*
G01*
D11*
X4408387Y-16521344D02*
X4408387Y-16321344D01*
X4408387Y-16321344D02*
X4456006Y-16321344D01*
X4456006Y-16321344D02*
X4484577Y-16330868D01*
X4484577Y-16330868D02*
X4503625Y-16349915D01*
X4503625Y-16349915D02*
X4513149Y-16368963D01*
X4513149Y-16368963D02*
X4522673Y-16407058D01*
X4522673Y-16407058D02*
X4522673Y-16435629D01*
X4522673Y-16435629D02*
X4513149Y-16473725D01*
X4513149Y-16473725D02*
X4503625Y-16492772D01*
X4503625Y-16492772D02*
X4484577Y-16511820D01*
X4484577Y-16511820D02*
X4456006Y-16521344D01*
X4456006Y-16521344D02*
X4408387Y-16521344D01*
X4608387Y-16521344D02*
X4608387Y-16388010D01*
X4608387Y-16426106D02*
X4617911Y-16407058D01*
X4617911Y-16407058D02*
X4627434Y-16397534D01*
X4627434Y-16397534D02*
X4646482Y-16388010D01*
X4646482Y-16388010D02*
X4665530Y-16388010D01*
X4732196Y-16521344D02*
X4732196Y-16388010D01*
X4732196Y-16321344D02*
X4722673Y-16330868D01*
X4722673Y-16330868D02*
X4732196Y-16340391D01*
X4732196Y-16340391D02*
X4741720Y-16330868D01*
X4741720Y-16330868D02*
X4732196Y-16321344D01*
X4732196Y-16321344D02*
X4732196Y-16340391D01*
X4856006Y-16521344D02*
X4836958Y-16511820D01*
X4836958Y-16511820D02*
X4827434Y-16492772D01*
X4827434Y-16492772D02*
X4827434Y-16321344D01*
X4960768Y-16521344D02*
X4941720Y-16511820D01*
X4941720Y-16511820D02*
X4932196Y-16492772D01*
X4932196Y-16492772D02*
X4932196Y-16321344D01*
X5189339Y-16521344D02*
X5189339Y-16321344D01*
X5189339Y-16321344D02*
X5256006Y-16464201D01*
X5256006Y-16464201D02*
X5322673Y-16321344D01*
X5322673Y-16321344D02*
X5322673Y-16521344D01*
X5503625Y-16521344D02*
X5503625Y-16416582D01*
X5503625Y-16416582D02*
X5494101Y-16397534D01*
X5494101Y-16397534D02*
X5475054Y-16388010D01*
X5475054Y-16388010D02*
X5436958Y-16388010D01*
X5436958Y-16388010D02*
X5417911Y-16397534D01*
X5503625Y-16511820D02*
X5484577Y-16521344D01*
X5484577Y-16521344D02*
X5436958Y-16521344D01*
X5436958Y-16521344D02*
X5417911Y-16511820D01*
X5417911Y-16511820D02*
X5408387Y-16492772D01*
X5408387Y-16492772D02*
X5408387Y-16473725D01*
X5408387Y-16473725D02*
X5417911Y-16454677D01*
X5417911Y-16454677D02*
X5436958Y-16445153D01*
X5436958Y-16445153D02*
X5484577Y-16445153D01*
X5484577Y-16445153D02*
X5503625Y-16435629D01*
X5598863Y-16388010D02*
X5598863Y-16588010D01*
X5598863Y-16397534D02*
X5617911Y-16388010D01*
X5617911Y-16388010D02*
X5656006Y-16388010D01*
X5656006Y-16388010D02*
X5675053Y-16397534D01*
X5675053Y-16397534D02*
X5684577Y-16407058D01*
X5684577Y-16407058D02*
X5694101Y-16426106D01*
X5694101Y-16426106D02*
X5694101Y-16483248D01*
X5694101Y-16483248D02*
X5684577Y-16502296D01*
X5684577Y-16502296D02*
X5675053Y-16511820D01*
X5675053Y-16511820D02*
X5656006Y-16521344D01*
X5656006Y-16521344D02*
X5617911Y-16521344D01*
X5617911Y-16521344D02*
X5598863Y-16511820D01*
X5779815Y-16502296D02*
X5789339Y-16511820D01*
X5789339Y-16511820D02*
X5779815Y-16521344D01*
X5779815Y-16521344D02*
X5770292Y-16511820D01*
X5770292Y-16511820D02*
X5779815Y-16502296D01*
X5779815Y-16502296D02*
X5779815Y-16521344D01*
X5779815Y-16397534D02*
X5789339Y-16407058D01*
X5789339Y-16407058D02*
X5779815Y-16416582D01*
X5779815Y-16416582D02*
X5770292Y-16407058D01*
X5770292Y-16407058D02*
X5779815Y-16397534D01*
X5779815Y-16397534D02*
X5779815Y-16416582D01*
D12*
X3997610Y-16774860D02*
X4147610Y-16924860D01*
X4147610Y-16774860D02*
X3997610Y-16924860D01*
D11*
X4513149Y-16941344D02*
X4398863Y-16941344D01*
X4456006Y-16941344D02*
X4456006Y-16741344D01*
X4456006Y-16741344D02*
X4436958Y-16769915D01*
X4436958Y-16769915D02*
X4417911Y-16788963D01*
X4417911Y-16788963D02*
X4398863Y-16798487D01*
X4598863Y-16922296D02*
X4608387Y-16931820D01*
X4608387Y-16931820D02*
X4598863Y-16941344D01*
X4598863Y-16941344D02*
X4589339Y-16931820D01*
X4589339Y-16931820D02*
X4598863Y-16922296D01*
X4598863Y-16922296D02*
X4598863Y-16941344D01*
X4789339Y-16741344D02*
X4694101Y-16741344D01*
X4694101Y-16741344D02*
X4684577Y-16836582D01*
X4684577Y-16836582D02*
X4694101Y-16827058D01*
X4694101Y-16827058D02*
X4713149Y-16817534D01*
X4713149Y-16817534D02*
X4760768Y-16817534D01*
X4760768Y-16817534D02*
X4779815Y-16827058D01*
X4779815Y-16827058D02*
X4789339Y-16836582D01*
X4789339Y-16836582D02*
X4798863Y-16855630D01*
X4798863Y-16855630D02*
X4798863Y-16903249D01*
X4798863Y-16903249D02*
X4789339Y-16922296D01*
X4789339Y-16922296D02*
X4779815Y-16931820D01*
X4779815Y-16931820D02*
X4760768Y-16941344D01*
X4760768Y-16941344D02*
X4713149Y-16941344D01*
X4713149Y-16941344D02*
X4694101Y-16931820D01*
X4694101Y-16931820D02*
X4684577Y-16922296D01*
X4922673Y-16741344D02*
X4941720Y-16741344D01*
X4941720Y-16741344D02*
X4960768Y-16750868D01*
X4960768Y-16750868D02*
X4970292Y-16760391D01*
X4970292Y-16760391D02*
X4979815Y-16779439D01*
X4979815Y-16779439D02*
X4989339Y-16817534D01*
X4989339Y-16817534D02*
X4989339Y-16865153D01*
X4989339Y-16865153D02*
X4979815Y-16903249D01*
X4979815Y-16903249D02*
X4970292Y-16922296D01*
X4970292Y-16922296D02*
X4960768Y-16931820D01*
X4960768Y-16931820D02*
X4941720Y-16941344D01*
X4941720Y-16941344D02*
X4922673Y-16941344D01*
X4922673Y-16941344D02*
X4903625Y-16931820D01*
X4903625Y-16931820D02*
X4894101Y-16922296D01*
X4894101Y-16922296D02*
X4884577Y-16903249D01*
X4884577Y-16903249D02*
X4875054Y-16865153D01*
X4875054Y-16865153D02*
X4875054Y-16817534D01*
X4875054Y-16817534D02*
X4884577Y-16779439D01*
X4884577Y-16779439D02*
X4894101Y-16760391D01*
X4894101Y-16760391D02*
X4903625Y-16750868D01*
X4903625Y-16750868D02*
X4922673Y-16741344D01*
X5113149Y-16741344D02*
X5132196Y-16741344D01*
X5132196Y-16741344D02*
X5151244Y-16750868D01*
X5151244Y-16750868D02*
X5160768Y-16760391D01*
X5160768Y-16760391D02*
X5170292Y-16779439D01*
X5170292Y-16779439D02*
X5179815Y-16817534D01*
X5179815Y-16817534D02*
X5179815Y-16865153D01*
X5179815Y-16865153D02*
X5170292Y-16903249D01*
X5170292Y-16903249D02*
X5160768Y-16922296D01*
X5160768Y-16922296D02*
X5151244Y-16931820D01*
X5151244Y-16931820D02*
X5132196Y-16941344D01*
X5132196Y-16941344D02*
X5113149Y-16941344D01*
X5113149Y-16941344D02*
X5094101Y-16931820D01*
X5094101Y-16931820D02*
X5084577Y-16922296D01*
X5084577Y-16922296D02*
X5075054Y-16903249D01*
X5075054Y-16903249D02*
X5065530Y-16865153D01*
X5065530Y-16865153D02*
X5065530Y-16817534D01*
X5065530Y-16817534D02*
X5075054Y-16779439D01*
X5075054Y-16779439D02*
X5084577Y-16760391D01*
X5084577Y-16760391D02*
X5094101Y-16750868D01*
X5094101Y-16750868D02*
X5113149Y-16741344D01*
X5265530Y-16941344D02*
X5265530Y-16808010D01*
X5265530Y-16827058D02*
X5275054Y-16817534D01*
X5275054Y-16817534D02*
X5294101Y-16808010D01*
X5294101Y-16808010D02*
X5322673Y-16808010D01*
X5322673Y-16808010D02*
X5341720Y-16817534D01*
X5341720Y-16817534D02*
X5351244Y-16836582D01*
X5351244Y-16836582D02*
X5351244Y-16941344D01*
X5351244Y-16836582D02*
X5360768Y-16817534D01*
X5360768Y-16817534D02*
X5379815Y-16808010D01*
X5379815Y-16808010D02*
X5408387Y-16808010D01*
X5408387Y-16808010D02*
X5427435Y-16817534D01*
X5427435Y-16817534D02*
X5436958Y-16836582D01*
X5436958Y-16836582D02*
X5436958Y-16941344D01*
X5532196Y-16941344D02*
X5532196Y-16808010D01*
X5532196Y-16827058D02*
X5541720Y-16817534D01*
X5541720Y-16817534D02*
X5560768Y-16808010D01*
X5560768Y-16808010D02*
X5589339Y-16808010D01*
X5589339Y-16808010D02*
X5608387Y-16817534D01*
X5608387Y-16817534D02*
X5617911Y-16836582D01*
X5617911Y-16836582D02*
X5617911Y-16941344D01*
X5617911Y-16836582D02*
X5627434Y-16817534D01*
X5627434Y-16817534D02*
X5646482Y-16808010D01*
X5646482Y-16808010D02*
X5675053Y-16808010D01*
X5675053Y-16808010D02*
X5694101Y-16817534D01*
X5694101Y-16817534D02*
X5703625Y-16836582D01*
X5703625Y-16836582D02*
X5703625Y-16941344D01*
X6094101Y-16731820D02*
X5922673Y-16988963D01*
X6351244Y-16741344D02*
X6370292Y-16741344D01*
X6370292Y-16741344D02*
X6389339Y-16750868D01*
X6389339Y-16750868D02*
X6398863Y-16760391D01*
X6398863Y-16760391D02*
X6408387Y-16779439D01*
X6408387Y-16779439D02*
X6417911Y-16817534D01*
X6417911Y-16817534D02*
X6417911Y-16865153D01*
X6417911Y-16865153D02*
X6408387Y-16903249D01*
X6408387Y-16903249D02*
X6398863Y-16922296D01*
X6398863Y-16922296D02*
X6389339Y-16931820D01*
X6389339Y-16931820D02*
X6370292Y-16941344D01*
X6370292Y-16941344D02*
X6351244Y-16941344D01*
X6351244Y-16941344D02*
X6332196Y-16931820D01*
X6332196Y-16931820D02*
X6322673Y-16922296D01*
X6322673Y-16922296D02*
X6313149Y-16903249D01*
X6313149Y-16903249D02*
X6303625Y-16865153D01*
X6303625Y-16865153D02*
X6303625Y-16817534D01*
X6303625Y-16817534D02*
X6313149Y-16779439D01*
X6313149Y-16779439D02*
X6322673Y-16760391D01*
X6322673Y-16760391D02*
X6332196Y-16750868D01*
X6332196Y-16750868D02*
X6351244Y-16741344D01*
X6503625Y-16922296D02*
X6513149Y-16931820D01*
X6513149Y-16931820D02*
X6503625Y-16941344D01*
X6503625Y-16941344D02*
X6494101Y-16931820D01*
X6494101Y-16931820D02*
X6503625Y-16922296D01*
X6503625Y-16922296D02*
X6503625Y-16941344D01*
X6636958Y-16741344D02*
X6656006Y-16741344D01*
X6656006Y-16741344D02*
X6675054Y-16750868D01*
X6675054Y-16750868D02*
X6684577Y-16760391D01*
X6684577Y-16760391D02*
X6694101Y-16779439D01*
X6694101Y-16779439D02*
X6703625Y-16817534D01*
X6703625Y-16817534D02*
X6703625Y-16865153D01*
X6703625Y-16865153D02*
X6694101Y-16903249D01*
X6694101Y-16903249D02*
X6684577Y-16922296D01*
X6684577Y-16922296D02*
X6675054Y-16931820D01*
X6675054Y-16931820D02*
X6656006Y-16941344D01*
X6656006Y-16941344D02*
X6636958Y-16941344D01*
X6636958Y-16941344D02*
X6617911Y-16931820D01*
X6617911Y-16931820D02*
X6608387Y-16922296D01*
X6608387Y-16922296D02*
X6598863Y-16903249D01*
X6598863Y-16903249D02*
X6589339Y-16865153D01*
X6589339Y-16865153D02*
X6589339Y-16817534D01*
X6589339Y-16817534D02*
X6598863Y-16779439D01*
X6598863Y-16779439D02*
X6608387Y-16760391D01*
X6608387Y-16760391D02*
X6617911Y-16750868D01*
X6617911Y-16750868D02*
X6636958Y-16741344D01*
X6884577Y-16741344D02*
X6789339Y-16741344D01*
X6789339Y-16741344D02*
X6779816Y-16836582D01*
X6779816Y-16836582D02*
X6789339Y-16827058D01*
X6789339Y-16827058D02*
X6808387Y-16817534D01*
X6808387Y-16817534D02*
X6856006Y-16817534D01*
X6856006Y-16817534D02*
X6875054Y-16827058D01*
X6875054Y-16827058D02*
X6884577Y-16836582D01*
X6884577Y-16836582D02*
X6894101Y-16855630D01*
X6894101Y-16855630D02*
X6894101Y-16903249D01*
X6894101Y-16903249D02*
X6884577Y-16922296D01*
X6884577Y-16922296D02*
X6875054Y-16931820D01*
X6875054Y-16931820D02*
X6856006Y-16941344D01*
X6856006Y-16941344D02*
X6808387Y-16941344D01*
X6808387Y-16941344D02*
X6789339Y-16931820D01*
X6789339Y-16931820D02*
X6779816Y-16922296D01*
X6989339Y-16941344D02*
X7027435Y-16941344D01*
X7027435Y-16941344D02*
X7046482Y-16931820D01*
X7046482Y-16931820D02*
X7056006Y-16922296D01*
X7056006Y-16922296D02*
X7075054Y-16893725D01*
X7075054Y-16893725D02*
X7084577Y-16855630D01*
X7084577Y-16855630D02*
X7084577Y-16779439D01*
X7084577Y-16779439D02*
X7075054Y-16760391D01*
X7075054Y-16760391D02*
X7065530Y-16750868D01*
X7065530Y-16750868D02*
X7046482Y-16741344D01*
X7046482Y-16741344D02*
X7008387Y-16741344D01*
X7008387Y-16741344D02*
X6989339Y-16750868D01*
X6989339Y-16750868D02*
X6979816Y-16760391D01*
X6979816Y-16760391D02*
X6970292Y-16779439D01*
X6970292Y-16779439D02*
X6970292Y-16827058D01*
X6970292Y-16827058D02*
X6979816Y-16846106D01*
X6979816Y-16846106D02*
X6989339Y-16855630D01*
X6989339Y-16855630D02*
X7008387Y-16865153D01*
X7008387Y-16865153D02*
X7046482Y-16865153D01*
X7046482Y-16865153D02*
X7065530Y-16855630D01*
X7065530Y-16855630D02*
X7075054Y-16846106D01*
X7075054Y-16846106D02*
X7084577Y-16827058D01*
X7275054Y-16941344D02*
X7160768Y-16941344D01*
X7217911Y-16941344D02*
X7217911Y-16741344D01*
X7217911Y-16741344D02*
X7198863Y-16769915D01*
X7198863Y-16769915D02*
X7179816Y-16788963D01*
X7179816Y-16788963D02*
X7160768Y-16798487D01*
X7351244Y-16741344D02*
X7351244Y-16779439D01*
X7427435Y-16741344D02*
X7427435Y-16779439D01*
X7722673Y-17017534D02*
X7713149Y-17008010D01*
X7713149Y-17008010D02*
X7694101Y-16979439D01*
X7694101Y-16979439D02*
X7684578Y-16960391D01*
X7684578Y-16960391D02*
X7675054Y-16931820D01*
X7675054Y-16931820D02*
X7665530Y-16884201D01*
X7665530Y-16884201D02*
X7665530Y-16846106D01*
X7665530Y-16846106D02*
X7675054Y-16798487D01*
X7675054Y-16798487D02*
X7684578Y-16769915D01*
X7684578Y-16769915D02*
X7694101Y-16750868D01*
X7694101Y-16750868D02*
X7713149Y-16722296D01*
X7713149Y-16722296D02*
X7722673Y-16712772D01*
X7827435Y-16827058D02*
X7808387Y-16817534D01*
X7808387Y-16817534D02*
X7798863Y-16808010D01*
X7798863Y-16808010D02*
X7789339Y-16788963D01*
X7789339Y-16788963D02*
X7789339Y-16779439D01*
X7789339Y-16779439D02*
X7798863Y-16760391D01*
X7798863Y-16760391D02*
X7808387Y-16750868D01*
X7808387Y-16750868D02*
X7827435Y-16741344D01*
X7827435Y-16741344D02*
X7865530Y-16741344D01*
X7865530Y-16741344D02*
X7884578Y-16750868D01*
X7884578Y-16750868D02*
X7894101Y-16760391D01*
X7894101Y-16760391D02*
X7903625Y-16779439D01*
X7903625Y-16779439D02*
X7903625Y-16788963D01*
X7903625Y-16788963D02*
X7894101Y-16808010D01*
X7894101Y-16808010D02*
X7884578Y-16817534D01*
X7884578Y-16817534D02*
X7865530Y-16827058D01*
X7865530Y-16827058D02*
X7827435Y-16827058D01*
X7827435Y-16827058D02*
X7808387Y-16836582D01*
X7808387Y-16836582D02*
X7798863Y-16846106D01*
X7798863Y-16846106D02*
X7789339Y-16865153D01*
X7789339Y-16865153D02*
X7789339Y-16903249D01*
X7789339Y-16903249D02*
X7798863Y-16922296D01*
X7798863Y-16922296D02*
X7808387Y-16931820D01*
X7808387Y-16931820D02*
X7827435Y-16941344D01*
X7827435Y-16941344D02*
X7865530Y-16941344D01*
X7865530Y-16941344D02*
X7884578Y-16931820D01*
X7884578Y-16931820D02*
X7894101Y-16922296D01*
X7894101Y-16922296D02*
X7903625Y-16903249D01*
X7903625Y-16903249D02*
X7903625Y-16865153D01*
X7903625Y-16865153D02*
X7894101Y-16846106D01*
X7894101Y-16846106D02*
X7884578Y-16836582D01*
X7884578Y-16836582D02*
X7865530Y-16827058D01*
X8141720Y-16941344D02*
X8141720Y-16741344D01*
X8227435Y-16941344D02*
X8227435Y-16836582D01*
X8227435Y-16836582D02*
X8217911Y-16817534D01*
X8217911Y-16817534D02*
X8198863Y-16808010D01*
X8198863Y-16808010D02*
X8170292Y-16808010D01*
X8170292Y-16808010D02*
X8151244Y-16817534D01*
X8151244Y-16817534D02*
X8141720Y-16827058D01*
X8351244Y-16941344D02*
X8332197Y-16931820D01*
X8332197Y-16931820D02*
X8322673Y-16922296D01*
X8322673Y-16922296D02*
X8313149Y-16903249D01*
X8313149Y-16903249D02*
X8313149Y-16846106D01*
X8313149Y-16846106D02*
X8322673Y-16827058D01*
X8322673Y-16827058D02*
X8332197Y-16817534D01*
X8332197Y-16817534D02*
X8351244Y-16808010D01*
X8351244Y-16808010D02*
X8379816Y-16808010D01*
X8379816Y-16808010D02*
X8398863Y-16817534D01*
X8398863Y-16817534D02*
X8408387Y-16827058D01*
X8408387Y-16827058D02*
X8417911Y-16846106D01*
X8417911Y-16846106D02*
X8417911Y-16903249D01*
X8417911Y-16903249D02*
X8408387Y-16922296D01*
X8408387Y-16922296D02*
X8398863Y-16931820D01*
X8398863Y-16931820D02*
X8379816Y-16941344D01*
X8379816Y-16941344D02*
X8351244Y-16941344D01*
X8532197Y-16941344D02*
X8513149Y-16931820D01*
X8513149Y-16931820D02*
X8503625Y-16912772D01*
X8503625Y-16912772D02*
X8503625Y-16741344D01*
X8684578Y-16931820D02*
X8665530Y-16941344D01*
X8665530Y-16941344D02*
X8627435Y-16941344D01*
X8627435Y-16941344D02*
X8608387Y-16931820D01*
X8608387Y-16931820D02*
X8598863Y-16912772D01*
X8598863Y-16912772D02*
X8598863Y-16836582D01*
X8598863Y-16836582D02*
X8608387Y-16817534D01*
X8608387Y-16817534D02*
X8627435Y-16808010D01*
X8627435Y-16808010D02*
X8665530Y-16808010D01*
X8665530Y-16808010D02*
X8684578Y-16817534D01*
X8684578Y-16817534D02*
X8694102Y-16836582D01*
X8694102Y-16836582D02*
X8694102Y-16855630D01*
X8694102Y-16855630D02*
X8598863Y-16874677D01*
X8770292Y-16931820D02*
X8789340Y-16941344D01*
X8789340Y-16941344D02*
X8827435Y-16941344D01*
X8827435Y-16941344D02*
X8846483Y-16931820D01*
X8846483Y-16931820D02*
X8856006Y-16912772D01*
X8856006Y-16912772D02*
X8856006Y-16903249D01*
X8856006Y-16903249D02*
X8846483Y-16884201D01*
X8846483Y-16884201D02*
X8827435Y-16874677D01*
X8827435Y-16874677D02*
X8798863Y-16874677D01*
X8798863Y-16874677D02*
X8779816Y-16865153D01*
X8779816Y-16865153D02*
X8770292Y-16846106D01*
X8770292Y-16846106D02*
X8770292Y-16836582D01*
X8770292Y-16836582D02*
X8779816Y-16817534D01*
X8779816Y-16817534D02*
X8798863Y-16808010D01*
X8798863Y-16808010D02*
X8827435Y-16808010D01*
X8827435Y-16808010D02*
X8846483Y-16817534D01*
X8922673Y-17017534D02*
X8932197Y-17008010D01*
X8932197Y-17008010D02*
X8951244Y-16979439D01*
X8951244Y-16979439D02*
X8960768Y-16960391D01*
X8960768Y-16960391D02*
X8970292Y-16931820D01*
X8970292Y-16931820D02*
X8979816Y-16884201D01*
X8979816Y-16884201D02*
X8979816Y-16846106D01*
X8979816Y-16846106D02*
X8970292Y-16798487D01*
X8970292Y-16798487D02*
X8960768Y-16769915D01*
X8960768Y-16769915D02*
X8951244Y-16750868D01*
X8951244Y-16750868D02*
X8932197Y-16722296D01*
X8932197Y-16722296D02*
X8922673Y-16712772D01*
X9284578Y-17017534D02*
X9275054Y-17008010D01*
X9275054Y-17008010D02*
X9256006Y-16979439D01*
X9256006Y-16979439D02*
X9246483Y-16960391D01*
X9246483Y-16960391D02*
X9236959Y-16931820D01*
X9236959Y-16931820D02*
X9227435Y-16884201D01*
X9227435Y-16884201D02*
X9227435Y-16846106D01*
X9227435Y-16846106D02*
X9236959Y-16798487D01*
X9236959Y-16798487D02*
X9246483Y-16769915D01*
X9246483Y-16769915D02*
X9256006Y-16750868D01*
X9256006Y-16750868D02*
X9275054Y-16722296D01*
X9275054Y-16722296D02*
X9284578Y-16712772D01*
X9360768Y-16808010D02*
X9360768Y-16941344D01*
X9360768Y-16827058D02*
X9370292Y-16817534D01*
X9370292Y-16817534D02*
X9389340Y-16808010D01*
X9389340Y-16808010D02*
X9417911Y-16808010D01*
X9417911Y-16808010D02*
X9436959Y-16817534D01*
X9436959Y-16817534D02*
X9446483Y-16836582D01*
X9446483Y-16836582D02*
X9446483Y-16941344D01*
X9570292Y-16941344D02*
X9551244Y-16931820D01*
X9551244Y-16931820D02*
X9541721Y-16922296D01*
X9541721Y-16922296D02*
X9532197Y-16903249D01*
X9532197Y-16903249D02*
X9532197Y-16846106D01*
X9532197Y-16846106D02*
X9541721Y-16827058D01*
X9541721Y-16827058D02*
X9551244Y-16817534D01*
X9551244Y-16817534D02*
X9570292Y-16808010D01*
X9570292Y-16808010D02*
X9598864Y-16808010D01*
X9598864Y-16808010D02*
X9617911Y-16817534D01*
X9617911Y-16817534D02*
X9627435Y-16827058D01*
X9627435Y-16827058D02*
X9636959Y-16846106D01*
X9636959Y-16846106D02*
X9636959Y-16903249D01*
X9636959Y-16903249D02*
X9627435Y-16922296D01*
X9627435Y-16922296D02*
X9617911Y-16931820D01*
X9617911Y-16931820D02*
X9598864Y-16941344D01*
X9598864Y-16941344D02*
X9570292Y-16941344D01*
X9694102Y-16808010D02*
X9770292Y-16808010D01*
X9722673Y-16741344D02*
X9722673Y-16912772D01*
X9722673Y-16912772D02*
X9732197Y-16931820D01*
X9732197Y-16931820D02*
X9751244Y-16941344D01*
X9751244Y-16941344D02*
X9770292Y-16941344D01*
X9989340Y-16808010D02*
X9989340Y-17008010D01*
X9989340Y-16817534D02*
X10008387Y-16808010D01*
X10008387Y-16808010D02*
X10046483Y-16808010D01*
X10046483Y-16808010D02*
X10065530Y-16817534D01*
X10065530Y-16817534D02*
X10075054Y-16827058D01*
X10075054Y-16827058D02*
X10084578Y-16846106D01*
X10084578Y-16846106D02*
X10084578Y-16903249D01*
X10084578Y-16903249D02*
X10075054Y-16922296D01*
X10075054Y-16922296D02*
X10065530Y-16931820D01*
X10065530Y-16931820D02*
X10046483Y-16941344D01*
X10046483Y-16941344D02*
X10008387Y-16941344D01*
X10008387Y-16941344D02*
X9989340Y-16931820D01*
X10198864Y-16941344D02*
X10179816Y-16931820D01*
X10179816Y-16931820D02*
X10170292Y-16912772D01*
X10170292Y-16912772D02*
X10170292Y-16741344D01*
X10360768Y-16941344D02*
X10360768Y-16836582D01*
X10360768Y-16836582D02*
X10351245Y-16817534D01*
X10351245Y-16817534D02*
X10332197Y-16808010D01*
X10332197Y-16808010D02*
X10294102Y-16808010D01*
X10294102Y-16808010D02*
X10275054Y-16817534D01*
X10360768Y-16931820D02*
X10341721Y-16941344D01*
X10341721Y-16941344D02*
X10294102Y-16941344D01*
X10294102Y-16941344D02*
X10275054Y-16931820D01*
X10275054Y-16931820D02*
X10265530Y-16912772D01*
X10265530Y-16912772D02*
X10265530Y-16893725D01*
X10265530Y-16893725D02*
X10275054Y-16874677D01*
X10275054Y-16874677D02*
X10294102Y-16865153D01*
X10294102Y-16865153D02*
X10341721Y-16865153D01*
X10341721Y-16865153D02*
X10360768Y-16855630D01*
X10427435Y-16808010D02*
X10503625Y-16808010D01*
X10456006Y-16741344D02*
X10456006Y-16912772D01*
X10456006Y-16912772D02*
X10465530Y-16931820D01*
X10465530Y-16931820D02*
X10484578Y-16941344D01*
X10484578Y-16941344D02*
X10503625Y-16941344D01*
X10646483Y-16931820D02*
X10627435Y-16941344D01*
X10627435Y-16941344D02*
X10589340Y-16941344D01*
X10589340Y-16941344D02*
X10570292Y-16931820D01*
X10570292Y-16931820D02*
X10560768Y-16912772D01*
X10560768Y-16912772D02*
X10560768Y-16836582D01*
X10560768Y-16836582D02*
X10570292Y-16817534D01*
X10570292Y-16817534D02*
X10589340Y-16808010D01*
X10589340Y-16808010D02*
X10627435Y-16808010D01*
X10627435Y-16808010D02*
X10646483Y-16817534D01*
X10646483Y-16817534D02*
X10656006Y-16836582D01*
X10656006Y-16836582D02*
X10656006Y-16855630D01*
X10656006Y-16855630D02*
X10560768Y-16874677D01*
X10827435Y-16941344D02*
X10827435Y-16741344D01*
X10827435Y-16931820D02*
X10808387Y-16941344D01*
X10808387Y-16941344D02*
X10770292Y-16941344D01*
X10770292Y-16941344D02*
X10751245Y-16931820D01*
X10751245Y-16931820D02*
X10741721Y-16922296D01*
X10741721Y-16922296D02*
X10732197Y-16903249D01*
X10732197Y-16903249D02*
X10732197Y-16846106D01*
X10732197Y-16846106D02*
X10741721Y-16827058D01*
X10741721Y-16827058D02*
X10751245Y-16817534D01*
X10751245Y-16817534D02*
X10770292Y-16808010D01*
X10770292Y-16808010D02*
X10808387Y-16808010D01*
X10808387Y-16808010D02*
X10827435Y-16817534D01*
X10903626Y-17017534D02*
X10913149Y-17008010D01*
X10913149Y-17008010D02*
X10932197Y-16979439D01*
X10932197Y-16979439D02*
X10941721Y-16960391D01*
X10941721Y-16960391D02*
X10951245Y-16931820D01*
X10951245Y-16931820D02*
X10960768Y-16884201D01*
X10960768Y-16884201D02*
X10960768Y-16846106D01*
X10960768Y-16846106D02*
X10951245Y-16798487D01*
X10951245Y-16798487D02*
X10941721Y-16769915D01*
X10941721Y-16769915D02*
X10932197Y-16750868D01*
X10932197Y-16750868D02*
X10913149Y-16722296D01*
X10913149Y-16722296D02*
X10903626Y-16712772D01*
D13*
X4147610Y-17119860D02*
G75*
G02*
X3967610Y-17119860I-90000J0D01*
G01*
X3967610Y-17119860D02*
G75*
G02*
X4147610Y-17119860I90000J0D01*
G01*
D11*
X4513149Y-17211344D02*
X4398863Y-17211344D01*
X4456006Y-17211344D02*
X4456006Y-17011344D01*
X4456006Y-17011344D02*
X4436958Y-17039915D01*
X4436958Y-17039915D02*
X4417911Y-17058963D01*
X4417911Y-17058963D02*
X4398863Y-17068487D01*
X4598863Y-17192296D02*
X4608387Y-17201820D01*
X4608387Y-17201820D02*
X4598863Y-17211344D01*
X4598863Y-17211344D02*
X4589339Y-17201820D01*
X4589339Y-17201820D02*
X4598863Y-17192296D01*
X4598863Y-17192296D02*
X4598863Y-17211344D01*
X4722673Y-17097058D02*
X4703625Y-17087534D01*
X4703625Y-17087534D02*
X4694101Y-17078010D01*
X4694101Y-17078010D02*
X4684577Y-17058963D01*
X4684577Y-17058963D02*
X4684577Y-17049439D01*
X4684577Y-17049439D02*
X4694101Y-17030391D01*
X4694101Y-17030391D02*
X4703625Y-17020868D01*
X4703625Y-17020868D02*
X4722673Y-17011344D01*
X4722673Y-17011344D02*
X4760768Y-17011344D01*
X4760768Y-17011344D02*
X4779815Y-17020868D01*
X4779815Y-17020868D02*
X4789339Y-17030391D01*
X4789339Y-17030391D02*
X4798863Y-17049439D01*
X4798863Y-17049439D02*
X4798863Y-17058963D01*
X4798863Y-17058963D02*
X4789339Y-17078010D01*
X4789339Y-17078010D02*
X4779815Y-17087534D01*
X4779815Y-17087534D02*
X4760768Y-17097058D01*
X4760768Y-17097058D02*
X4722673Y-17097058D01*
X4722673Y-17097058D02*
X4703625Y-17106582D01*
X4703625Y-17106582D02*
X4694101Y-17116106D01*
X4694101Y-17116106D02*
X4684577Y-17135153D01*
X4684577Y-17135153D02*
X4684577Y-17173249D01*
X4684577Y-17173249D02*
X4694101Y-17192296D01*
X4694101Y-17192296D02*
X4703625Y-17201820D01*
X4703625Y-17201820D02*
X4722673Y-17211344D01*
X4722673Y-17211344D02*
X4760768Y-17211344D01*
X4760768Y-17211344D02*
X4779815Y-17201820D01*
X4779815Y-17201820D02*
X4789339Y-17192296D01*
X4789339Y-17192296D02*
X4798863Y-17173249D01*
X4798863Y-17173249D02*
X4798863Y-17135153D01*
X4798863Y-17135153D02*
X4789339Y-17116106D01*
X4789339Y-17116106D02*
X4779815Y-17106582D01*
X4779815Y-17106582D02*
X4760768Y-17097058D01*
X4922673Y-17011344D02*
X4941720Y-17011344D01*
X4941720Y-17011344D02*
X4960768Y-17020868D01*
X4960768Y-17020868D02*
X4970292Y-17030391D01*
X4970292Y-17030391D02*
X4979815Y-17049439D01*
X4979815Y-17049439D02*
X4989339Y-17087534D01*
X4989339Y-17087534D02*
X4989339Y-17135153D01*
X4989339Y-17135153D02*
X4979815Y-17173249D01*
X4979815Y-17173249D02*
X4970292Y-17192296D01*
X4970292Y-17192296D02*
X4960768Y-17201820D01*
X4960768Y-17201820D02*
X4941720Y-17211344D01*
X4941720Y-17211344D02*
X4922673Y-17211344D01*
X4922673Y-17211344D02*
X4903625Y-17201820D01*
X4903625Y-17201820D02*
X4894101Y-17192296D01*
X4894101Y-17192296D02*
X4884577Y-17173249D01*
X4884577Y-17173249D02*
X4875054Y-17135153D01*
X4875054Y-17135153D02*
X4875054Y-17087534D01*
X4875054Y-17087534D02*
X4884577Y-17049439D01*
X4884577Y-17049439D02*
X4894101Y-17030391D01*
X4894101Y-17030391D02*
X4903625Y-17020868D01*
X4903625Y-17020868D02*
X4922673Y-17011344D01*
X5113149Y-17011344D02*
X5132196Y-17011344D01*
X5132196Y-17011344D02*
X5151244Y-17020868D01*
X5151244Y-17020868D02*
X5160768Y-17030391D01*
X5160768Y-17030391D02*
X5170292Y-17049439D01*
X5170292Y-17049439D02*
X5179815Y-17087534D01*
X5179815Y-17087534D02*
X5179815Y-17135153D01*
X5179815Y-17135153D02*
X5170292Y-17173249D01*
X5170292Y-17173249D02*
X5160768Y-17192296D01*
X5160768Y-17192296D02*
X5151244Y-17201820D01*
X5151244Y-17201820D02*
X5132196Y-17211344D01*
X5132196Y-17211344D02*
X5113149Y-17211344D01*
X5113149Y-17211344D02*
X5094101Y-17201820D01*
X5094101Y-17201820D02*
X5084577Y-17192296D01*
X5084577Y-17192296D02*
X5075054Y-17173249D01*
X5075054Y-17173249D02*
X5065530Y-17135153D01*
X5065530Y-17135153D02*
X5065530Y-17087534D01*
X5065530Y-17087534D02*
X5075054Y-17049439D01*
X5075054Y-17049439D02*
X5084577Y-17030391D01*
X5084577Y-17030391D02*
X5094101Y-17020868D01*
X5094101Y-17020868D02*
X5113149Y-17011344D01*
X5265530Y-17211344D02*
X5265530Y-17078010D01*
X5265530Y-17097058D02*
X5275054Y-17087534D01*
X5275054Y-17087534D02*
X5294101Y-17078010D01*
X5294101Y-17078010D02*
X5322673Y-17078010D01*
X5322673Y-17078010D02*
X5341720Y-17087534D01*
X5341720Y-17087534D02*
X5351244Y-17106582D01*
X5351244Y-17106582D02*
X5351244Y-17211344D01*
X5351244Y-17106582D02*
X5360768Y-17087534D01*
X5360768Y-17087534D02*
X5379815Y-17078010D01*
X5379815Y-17078010D02*
X5408387Y-17078010D01*
X5408387Y-17078010D02*
X5427435Y-17087534D01*
X5427435Y-17087534D02*
X5436958Y-17106582D01*
X5436958Y-17106582D02*
X5436958Y-17211344D01*
X5532196Y-17211344D02*
X5532196Y-17078010D01*
X5532196Y-17097058D02*
X5541720Y-17087534D01*
X5541720Y-17087534D02*
X5560768Y-17078010D01*
X5560768Y-17078010D02*
X5589339Y-17078010D01*
X5589339Y-17078010D02*
X5608387Y-17087534D01*
X5608387Y-17087534D02*
X5617911Y-17106582D01*
X5617911Y-17106582D02*
X5617911Y-17211344D01*
X5617911Y-17106582D02*
X5627434Y-17087534D01*
X5627434Y-17087534D02*
X5646482Y-17078010D01*
X5646482Y-17078010D02*
X5675053Y-17078010D01*
X5675053Y-17078010D02*
X5694101Y-17087534D01*
X5694101Y-17087534D02*
X5703625Y-17106582D01*
X5703625Y-17106582D02*
X5703625Y-17211344D01*
X6094101Y-17001820D02*
X5922673Y-17258963D01*
X6351244Y-17011344D02*
X6370292Y-17011344D01*
X6370292Y-17011344D02*
X6389339Y-17020868D01*
X6389339Y-17020868D02*
X6398863Y-17030391D01*
X6398863Y-17030391D02*
X6408387Y-17049439D01*
X6408387Y-17049439D02*
X6417911Y-17087534D01*
X6417911Y-17087534D02*
X6417911Y-17135153D01*
X6417911Y-17135153D02*
X6408387Y-17173249D01*
X6408387Y-17173249D02*
X6398863Y-17192296D01*
X6398863Y-17192296D02*
X6389339Y-17201820D01*
X6389339Y-17201820D02*
X6370292Y-17211344D01*
X6370292Y-17211344D02*
X6351244Y-17211344D01*
X6351244Y-17211344D02*
X6332196Y-17201820D01*
X6332196Y-17201820D02*
X6322673Y-17192296D01*
X6322673Y-17192296D02*
X6313149Y-17173249D01*
X6313149Y-17173249D02*
X6303625Y-17135153D01*
X6303625Y-17135153D02*
X6303625Y-17087534D01*
X6303625Y-17087534D02*
X6313149Y-17049439D01*
X6313149Y-17049439D02*
X6322673Y-17030391D01*
X6322673Y-17030391D02*
X6332196Y-17020868D01*
X6332196Y-17020868D02*
X6351244Y-17011344D01*
X6503625Y-17192296D02*
X6513149Y-17201820D01*
X6513149Y-17201820D02*
X6503625Y-17211344D01*
X6503625Y-17211344D02*
X6494101Y-17201820D01*
X6494101Y-17201820D02*
X6503625Y-17192296D01*
X6503625Y-17192296D02*
X6503625Y-17211344D01*
X6636958Y-17011344D02*
X6656006Y-17011344D01*
X6656006Y-17011344D02*
X6675054Y-17020868D01*
X6675054Y-17020868D02*
X6684577Y-17030391D01*
X6684577Y-17030391D02*
X6694101Y-17049439D01*
X6694101Y-17049439D02*
X6703625Y-17087534D01*
X6703625Y-17087534D02*
X6703625Y-17135153D01*
X6703625Y-17135153D02*
X6694101Y-17173249D01*
X6694101Y-17173249D02*
X6684577Y-17192296D01*
X6684577Y-17192296D02*
X6675054Y-17201820D01*
X6675054Y-17201820D02*
X6656006Y-17211344D01*
X6656006Y-17211344D02*
X6636958Y-17211344D01*
X6636958Y-17211344D02*
X6617911Y-17201820D01*
X6617911Y-17201820D02*
X6608387Y-17192296D01*
X6608387Y-17192296D02*
X6598863Y-17173249D01*
X6598863Y-17173249D02*
X6589339Y-17135153D01*
X6589339Y-17135153D02*
X6589339Y-17087534D01*
X6589339Y-17087534D02*
X6598863Y-17049439D01*
X6598863Y-17049439D02*
X6608387Y-17030391D01*
X6608387Y-17030391D02*
X6617911Y-17020868D01*
X6617911Y-17020868D02*
X6636958Y-17011344D01*
X6770292Y-17011344D02*
X6903625Y-17011344D01*
X6903625Y-17011344D02*
X6817911Y-17211344D01*
X7017911Y-17011344D02*
X7036958Y-17011344D01*
X7036958Y-17011344D02*
X7056006Y-17020868D01*
X7056006Y-17020868D02*
X7065530Y-17030391D01*
X7065530Y-17030391D02*
X7075054Y-17049439D01*
X7075054Y-17049439D02*
X7084577Y-17087534D01*
X7084577Y-17087534D02*
X7084577Y-17135153D01*
X7084577Y-17135153D02*
X7075054Y-17173249D01*
X7075054Y-17173249D02*
X7065530Y-17192296D01*
X7065530Y-17192296D02*
X7056006Y-17201820D01*
X7056006Y-17201820D02*
X7036958Y-17211344D01*
X7036958Y-17211344D02*
X7017911Y-17211344D01*
X7017911Y-17211344D02*
X6998863Y-17201820D01*
X6998863Y-17201820D02*
X6989339Y-17192296D01*
X6989339Y-17192296D02*
X6979816Y-17173249D01*
X6979816Y-17173249D02*
X6970292Y-17135153D01*
X6970292Y-17135153D02*
X6970292Y-17087534D01*
X6970292Y-17087534D02*
X6979816Y-17049439D01*
X6979816Y-17049439D02*
X6989339Y-17030391D01*
X6989339Y-17030391D02*
X6998863Y-17020868D01*
X6998863Y-17020868D02*
X7017911Y-17011344D01*
X7179816Y-17211344D02*
X7217911Y-17211344D01*
X7217911Y-17211344D02*
X7236958Y-17201820D01*
X7236958Y-17201820D02*
X7246482Y-17192296D01*
X7246482Y-17192296D02*
X7265530Y-17163725D01*
X7265530Y-17163725D02*
X7275054Y-17125630D01*
X7275054Y-17125630D02*
X7275054Y-17049439D01*
X7275054Y-17049439D02*
X7265530Y-17030391D01*
X7265530Y-17030391D02*
X7256006Y-17020868D01*
X7256006Y-17020868D02*
X7236958Y-17011344D01*
X7236958Y-17011344D02*
X7198863Y-17011344D01*
X7198863Y-17011344D02*
X7179816Y-17020868D01*
X7179816Y-17020868D02*
X7170292Y-17030391D01*
X7170292Y-17030391D02*
X7160768Y-17049439D01*
X7160768Y-17049439D02*
X7160768Y-17097058D01*
X7160768Y-17097058D02*
X7170292Y-17116106D01*
X7170292Y-17116106D02*
X7179816Y-17125630D01*
X7179816Y-17125630D02*
X7198863Y-17135153D01*
X7198863Y-17135153D02*
X7236958Y-17135153D01*
X7236958Y-17135153D02*
X7256006Y-17125630D01*
X7256006Y-17125630D02*
X7265530Y-17116106D01*
X7265530Y-17116106D02*
X7275054Y-17097058D01*
X7351244Y-17011344D02*
X7351244Y-17049439D01*
X7427435Y-17011344D02*
X7427435Y-17049439D01*
X7722673Y-17287534D02*
X7713149Y-17278010D01*
X7713149Y-17278010D02*
X7694101Y-17249439D01*
X7694101Y-17249439D02*
X7684578Y-17230391D01*
X7684578Y-17230391D02*
X7675054Y-17201820D01*
X7675054Y-17201820D02*
X7665530Y-17154201D01*
X7665530Y-17154201D02*
X7665530Y-17116106D01*
X7665530Y-17116106D02*
X7675054Y-17068487D01*
X7675054Y-17068487D02*
X7684578Y-17039915D01*
X7684578Y-17039915D02*
X7694101Y-17020868D01*
X7694101Y-17020868D02*
X7713149Y-16992296D01*
X7713149Y-16992296D02*
X7722673Y-16982772D01*
X7827435Y-17097058D02*
X7808387Y-17087534D01*
X7808387Y-17087534D02*
X7798863Y-17078010D01*
X7798863Y-17078010D02*
X7789339Y-17058963D01*
X7789339Y-17058963D02*
X7789339Y-17049439D01*
X7789339Y-17049439D02*
X7798863Y-17030391D01*
X7798863Y-17030391D02*
X7808387Y-17020868D01*
X7808387Y-17020868D02*
X7827435Y-17011344D01*
X7827435Y-17011344D02*
X7865530Y-17011344D01*
X7865530Y-17011344D02*
X7884578Y-17020868D01*
X7884578Y-17020868D02*
X7894101Y-17030391D01*
X7894101Y-17030391D02*
X7903625Y-17049439D01*
X7903625Y-17049439D02*
X7903625Y-17058963D01*
X7903625Y-17058963D02*
X7894101Y-17078010D01*
X7894101Y-17078010D02*
X7884578Y-17087534D01*
X7884578Y-17087534D02*
X7865530Y-17097058D01*
X7865530Y-17097058D02*
X7827435Y-17097058D01*
X7827435Y-17097058D02*
X7808387Y-17106582D01*
X7808387Y-17106582D02*
X7798863Y-17116106D01*
X7798863Y-17116106D02*
X7789339Y-17135153D01*
X7789339Y-17135153D02*
X7789339Y-17173249D01*
X7789339Y-17173249D02*
X7798863Y-17192296D01*
X7798863Y-17192296D02*
X7808387Y-17201820D01*
X7808387Y-17201820D02*
X7827435Y-17211344D01*
X7827435Y-17211344D02*
X7865530Y-17211344D01*
X7865530Y-17211344D02*
X7884578Y-17201820D01*
X7884578Y-17201820D02*
X7894101Y-17192296D01*
X7894101Y-17192296D02*
X7903625Y-17173249D01*
X7903625Y-17173249D02*
X7903625Y-17135153D01*
X7903625Y-17135153D02*
X7894101Y-17116106D01*
X7894101Y-17116106D02*
X7884578Y-17106582D01*
X7884578Y-17106582D02*
X7865530Y-17097058D01*
X8141720Y-17211344D02*
X8141720Y-17011344D01*
X8227435Y-17211344D02*
X8227435Y-17106582D01*
X8227435Y-17106582D02*
X8217911Y-17087534D01*
X8217911Y-17087534D02*
X8198863Y-17078010D01*
X8198863Y-17078010D02*
X8170292Y-17078010D01*
X8170292Y-17078010D02*
X8151244Y-17087534D01*
X8151244Y-17087534D02*
X8141720Y-17097058D01*
X8351244Y-17211344D02*
X8332197Y-17201820D01*
X8332197Y-17201820D02*
X8322673Y-17192296D01*
X8322673Y-17192296D02*
X8313149Y-17173249D01*
X8313149Y-17173249D02*
X8313149Y-17116106D01*
X8313149Y-17116106D02*
X8322673Y-17097058D01*
X8322673Y-17097058D02*
X8332197Y-17087534D01*
X8332197Y-17087534D02*
X8351244Y-17078010D01*
X8351244Y-17078010D02*
X8379816Y-17078010D01*
X8379816Y-17078010D02*
X8398863Y-17087534D01*
X8398863Y-17087534D02*
X8408387Y-17097058D01*
X8408387Y-17097058D02*
X8417911Y-17116106D01*
X8417911Y-17116106D02*
X8417911Y-17173249D01*
X8417911Y-17173249D02*
X8408387Y-17192296D01*
X8408387Y-17192296D02*
X8398863Y-17201820D01*
X8398863Y-17201820D02*
X8379816Y-17211344D01*
X8379816Y-17211344D02*
X8351244Y-17211344D01*
X8532197Y-17211344D02*
X8513149Y-17201820D01*
X8513149Y-17201820D02*
X8503625Y-17182772D01*
X8503625Y-17182772D02*
X8503625Y-17011344D01*
X8684578Y-17201820D02*
X8665530Y-17211344D01*
X8665530Y-17211344D02*
X8627435Y-17211344D01*
X8627435Y-17211344D02*
X8608387Y-17201820D01*
X8608387Y-17201820D02*
X8598863Y-17182772D01*
X8598863Y-17182772D02*
X8598863Y-17106582D01*
X8598863Y-17106582D02*
X8608387Y-17087534D01*
X8608387Y-17087534D02*
X8627435Y-17078010D01*
X8627435Y-17078010D02*
X8665530Y-17078010D01*
X8665530Y-17078010D02*
X8684578Y-17087534D01*
X8684578Y-17087534D02*
X8694102Y-17106582D01*
X8694102Y-17106582D02*
X8694102Y-17125630D01*
X8694102Y-17125630D02*
X8598863Y-17144677D01*
X8770292Y-17201820D02*
X8789340Y-17211344D01*
X8789340Y-17211344D02*
X8827435Y-17211344D01*
X8827435Y-17211344D02*
X8846483Y-17201820D01*
X8846483Y-17201820D02*
X8856006Y-17182772D01*
X8856006Y-17182772D02*
X8856006Y-17173249D01*
X8856006Y-17173249D02*
X8846483Y-17154201D01*
X8846483Y-17154201D02*
X8827435Y-17144677D01*
X8827435Y-17144677D02*
X8798863Y-17144677D01*
X8798863Y-17144677D02*
X8779816Y-17135153D01*
X8779816Y-17135153D02*
X8770292Y-17116106D01*
X8770292Y-17116106D02*
X8770292Y-17106582D01*
X8770292Y-17106582D02*
X8779816Y-17087534D01*
X8779816Y-17087534D02*
X8798863Y-17078010D01*
X8798863Y-17078010D02*
X8827435Y-17078010D01*
X8827435Y-17078010D02*
X8846483Y-17087534D01*
X8922673Y-17287534D02*
X8932197Y-17278010D01*
X8932197Y-17278010D02*
X8951244Y-17249439D01*
X8951244Y-17249439D02*
X8960768Y-17230391D01*
X8960768Y-17230391D02*
X8970292Y-17201820D01*
X8970292Y-17201820D02*
X8979816Y-17154201D01*
X8979816Y-17154201D02*
X8979816Y-17116106D01*
X8979816Y-17116106D02*
X8970292Y-17068487D01*
X8970292Y-17068487D02*
X8960768Y-17039915D01*
X8960768Y-17039915D02*
X8951244Y-17020868D01*
X8951244Y-17020868D02*
X8932197Y-16992296D01*
X8932197Y-16992296D02*
X8922673Y-16982772D01*
X9284578Y-17287534D02*
X9275054Y-17278010D01*
X9275054Y-17278010D02*
X9256006Y-17249439D01*
X9256006Y-17249439D02*
X9246483Y-17230391D01*
X9246483Y-17230391D02*
X9236959Y-17201820D01*
X9236959Y-17201820D02*
X9227435Y-17154201D01*
X9227435Y-17154201D02*
X9227435Y-17116106D01*
X9227435Y-17116106D02*
X9236959Y-17068487D01*
X9236959Y-17068487D02*
X9246483Y-17039915D01*
X9246483Y-17039915D02*
X9256006Y-17020868D01*
X9256006Y-17020868D02*
X9275054Y-16992296D01*
X9275054Y-16992296D02*
X9284578Y-16982772D01*
X9360768Y-17078010D02*
X9360768Y-17211344D01*
X9360768Y-17097058D02*
X9370292Y-17087534D01*
X9370292Y-17087534D02*
X9389340Y-17078010D01*
X9389340Y-17078010D02*
X9417911Y-17078010D01*
X9417911Y-17078010D02*
X9436959Y-17087534D01*
X9436959Y-17087534D02*
X9446483Y-17106582D01*
X9446483Y-17106582D02*
X9446483Y-17211344D01*
X9570292Y-17211344D02*
X9551244Y-17201820D01*
X9551244Y-17201820D02*
X9541721Y-17192296D01*
X9541721Y-17192296D02*
X9532197Y-17173249D01*
X9532197Y-17173249D02*
X9532197Y-17116106D01*
X9532197Y-17116106D02*
X9541721Y-17097058D01*
X9541721Y-17097058D02*
X9551244Y-17087534D01*
X9551244Y-17087534D02*
X9570292Y-17078010D01*
X9570292Y-17078010D02*
X9598864Y-17078010D01*
X9598864Y-17078010D02*
X9617911Y-17087534D01*
X9617911Y-17087534D02*
X9627435Y-17097058D01*
X9627435Y-17097058D02*
X9636959Y-17116106D01*
X9636959Y-17116106D02*
X9636959Y-17173249D01*
X9636959Y-17173249D02*
X9627435Y-17192296D01*
X9627435Y-17192296D02*
X9617911Y-17201820D01*
X9617911Y-17201820D02*
X9598864Y-17211344D01*
X9598864Y-17211344D02*
X9570292Y-17211344D01*
X9694102Y-17078010D02*
X9770292Y-17078010D01*
X9722673Y-17011344D02*
X9722673Y-17182772D01*
X9722673Y-17182772D02*
X9732197Y-17201820D01*
X9732197Y-17201820D02*
X9751244Y-17211344D01*
X9751244Y-17211344D02*
X9770292Y-17211344D01*
X9989340Y-17078010D02*
X9989340Y-17278010D01*
X9989340Y-17087534D02*
X10008387Y-17078010D01*
X10008387Y-17078010D02*
X10046483Y-17078010D01*
X10046483Y-17078010D02*
X10065530Y-17087534D01*
X10065530Y-17087534D02*
X10075054Y-17097058D01*
X10075054Y-17097058D02*
X10084578Y-17116106D01*
X10084578Y-17116106D02*
X10084578Y-17173249D01*
X10084578Y-17173249D02*
X10075054Y-17192296D01*
X10075054Y-17192296D02*
X10065530Y-17201820D01*
X10065530Y-17201820D02*
X10046483Y-17211344D01*
X10046483Y-17211344D02*
X10008387Y-17211344D01*
X10008387Y-17211344D02*
X9989340Y-17201820D01*
X10198864Y-17211344D02*
X10179816Y-17201820D01*
X10179816Y-17201820D02*
X10170292Y-17182772D01*
X10170292Y-17182772D02*
X10170292Y-17011344D01*
X10360768Y-17211344D02*
X10360768Y-17106582D01*
X10360768Y-17106582D02*
X10351245Y-17087534D01*
X10351245Y-17087534D02*
X10332197Y-17078010D01*
X10332197Y-17078010D02*
X10294102Y-17078010D01*
X10294102Y-17078010D02*
X10275054Y-17087534D01*
X10360768Y-17201820D02*
X10341721Y-17211344D01*
X10341721Y-17211344D02*
X10294102Y-17211344D01*
X10294102Y-17211344D02*
X10275054Y-17201820D01*
X10275054Y-17201820D02*
X10265530Y-17182772D01*
X10265530Y-17182772D02*
X10265530Y-17163725D01*
X10265530Y-17163725D02*
X10275054Y-17144677D01*
X10275054Y-17144677D02*
X10294102Y-17135153D01*
X10294102Y-17135153D02*
X10341721Y-17135153D01*
X10341721Y-17135153D02*
X10360768Y-17125630D01*
X10427435Y-17078010D02*
X10503625Y-17078010D01*
X10456006Y-17011344D02*
X10456006Y-17182772D01*
X10456006Y-17182772D02*
X10465530Y-17201820D01*
X10465530Y-17201820D02*
X10484578Y-17211344D01*
X10484578Y-17211344D02*
X10503625Y-17211344D01*
X10646483Y-17201820D02*
X10627435Y-17211344D01*
X10627435Y-17211344D02*
X10589340Y-17211344D01*
X10589340Y-17211344D02*
X10570292Y-17201820D01*
X10570292Y-17201820D02*
X10560768Y-17182772D01*
X10560768Y-17182772D02*
X10560768Y-17106582D01*
X10560768Y-17106582D02*
X10570292Y-17087534D01*
X10570292Y-17087534D02*
X10589340Y-17078010D01*
X10589340Y-17078010D02*
X10627435Y-17078010D01*
X10627435Y-17078010D02*
X10646483Y-17087534D01*
X10646483Y-17087534D02*
X10656006Y-17106582D01*
X10656006Y-17106582D02*
X10656006Y-17125630D01*
X10656006Y-17125630D02*
X10560768Y-17144677D01*
X10827435Y-17211344D02*
X10827435Y-17011344D01*
X10827435Y-17201820D02*
X10808387Y-17211344D01*
X10808387Y-17211344D02*
X10770292Y-17211344D01*
X10770292Y-17211344D02*
X10751245Y-17201820D01*
X10751245Y-17201820D02*
X10741721Y-17192296D01*
X10741721Y-17192296D02*
X10732197Y-17173249D01*
X10732197Y-17173249D02*
X10732197Y-17116106D01*
X10732197Y-17116106D02*
X10741721Y-17097058D01*
X10741721Y-17097058D02*
X10751245Y-17087534D01*
X10751245Y-17087534D02*
X10770292Y-17078010D01*
X10770292Y-17078010D02*
X10808387Y-17078010D01*
X10808387Y-17078010D02*
X10827435Y-17087534D01*
X10903626Y-17287534D02*
X10913149Y-17278010D01*
X10913149Y-17278010D02*
X10932197Y-17249439D01*
X10932197Y-17249439D02*
X10941721Y-17230391D01*
X10941721Y-17230391D02*
X10951245Y-17201820D01*
X10951245Y-17201820D02*
X10960768Y-17154201D01*
X10960768Y-17154201D02*
X10960768Y-17116106D01*
X10960768Y-17116106D02*
X10951245Y-17068487D01*
X10951245Y-17068487D02*
X10941721Y-17039915D01*
X10941721Y-17039915D02*
X10932197Y-17020868D01*
X10932197Y-17020868D02*
X10913149Y-16992296D01*
X10913149Y-16992296D02*
X10903626Y-16982772D01*
M02*
