G04 #@! TF.GenerationSoftware,KiCad,Pcbnew,8.0.8*
G04 #@! TF.CreationDate,2025-02-09T13:36:47-06:00*
G04 #@! TF.ProjectId,gamepad,67616d65-7061-4642-9e6b-696361645f70,3*
G04 #@! TF.SameCoordinates,Original*
G04 #@! TF.FileFunction,Profile,NP*
%FSLAX46Y46*%
G04 Gerber Fmt 4.6, Leading zero omitted, Abs format (unit mm)*
G04 Created by KiCad (PCBNEW 8.0.8) date 2025-02-09 13:36:47*
%MOMM*%
%LPD*%
G01*
G04 APERTURE LIST*
G04 #@! TA.AperFunction,Profile*
%ADD10C,0.050000*%
G04 #@! TD*
G04 APERTURE END LIST*
D10*
X254350000Y-77000000D02*
G75*
G02*
X251650000Y-77000000I-1350000J0D01*
G01*
X251650000Y-77000000D02*
G75*
G02*
X254350000Y-77000000I1350000J0D01*
G01*
X214350000Y-77000000D02*
G75*
G02*
X211650000Y-77000000I-1350000J0D01*
G01*
X211650000Y-77000000D02*
G75*
G02*
X214350000Y-77000000I1350000J0D01*
G01*
X85350000Y-77000000D02*
G75*
G02*
X82650000Y-77000000I-1350000J0D01*
G01*
X82650000Y-77000000D02*
G75*
G02*
X85350000Y-77000000I1350000J0D01*
G01*
X236350000Y-50000000D02*
G75*
G02*
X233650000Y-50000000I-1350000J0D01*
G01*
X233650000Y-50000000D02*
G75*
G02*
X236350000Y-50000000I1350000J0D01*
G01*
X214350000Y-50000000D02*
G75*
G02*
X211650000Y-50000000I-1350000J0D01*
G01*
X211650000Y-50000000D02*
G75*
G02*
X214350000Y-50000000I1350000J0D01*
G01*
X254350000Y-124000000D02*
G75*
G02*
X251650000Y-124000000I-1350000J0D01*
G01*
X251650000Y-124000000D02*
G75*
G02*
X254350000Y-124000000I1350000J0D01*
G01*
X214350000Y-124000000D02*
G75*
G02*
X211650000Y-124000000I-1350000J0D01*
G01*
X211650000Y-124000000D02*
G75*
G02*
X214350000Y-124000000I1350000J0D01*
G01*
X85350000Y-124000000D02*
G75*
G02*
X82650000Y-124000000I-1350000J0D01*
G01*
X82650000Y-124000000D02*
G75*
G02*
X85350000Y-124000000I1350000J0D01*
G01*
X210350000Y-159500000D02*
G75*
G02*
X207650000Y-159500000I-1350000J0D01*
G01*
X207650000Y-159500000D02*
G75*
G02*
X210350000Y-159500000I1350000J0D01*
G01*
X89350000Y-159500000D02*
G75*
G02*
X86650000Y-159500000I-1350000J0D01*
G01*
X86650000Y-159500000D02*
G75*
G02*
X89350000Y-159500000I1350000J0D01*
G01*
X45350000Y-124000000D02*
G75*
G02*
X42650000Y-124000000I-1350000J0D01*
G01*
X42650000Y-124000000D02*
G75*
G02*
X45350000Y-124000000I1350000J0D01*
G01*
X45350000Y-77000000D02*
G75*
G02*
X42650000Y-77000000I-1350000J0D01*
G01*
X42650000Y-77000000D02*
G75*
G02*
X45350000Y-77000000I1350000J0D01*
G01*
X63850000Y-50000000D02*
G75*
G02*
X61150000Y-50000000I-1350000J0D01*
G01*
X61150000Y-50000000D02*
G75*
G02*
X63850000Y-50000000I1350000J0D01*
G01*
X85350000Y-50000000D02*
G75*
G02*
X82650000Y-50000000I-1350000J0D01*
G01*
X82650000Y-50000000D02*
G75*
G02*
X85350000Y-50000000I1350000J0D01*
G01*
X46741100Y-57343600D02*
X41501100Y-68363600D01*
X86501100Y-162073600D02*
X210501100Y-162073600D01*
X41501100Y-68363600D02*
X41501100Y-125163600D01*
X86501100Y-162073600D02*
X41501100Y-125163600D01*
X86501100Y-47933600D02*
X61491100Y-47933600D01*
X61491100Y-47933600D02*
X46741100Y-57343600D01*
X210501100Y-137933600D02*
X86501100Y-137933600D01*
X250261100Y-57343600D02*
X235511100Y-47933600D01*
X255501100Y-68363600D02*
X250261100Y-57343600D01*
X86501100Y-137933600D02*
X86501100Y-47933600D01*
X255501100Y-125163600D02*
X255501100Y-68363600D01*
X235511100Y-47933600D02*
X210501100Y-47933600D01*
X210501100Y-162073600D02*
X255501100Y-125163600D01*
X210501100Y-47933600D02*
X210501100Y-137933600D01*
M02*
