M48
; DRILL file {KiCad 8.0.8} date 2025-02-09T13:37:08-0600
; FORMAT={-:-/ absolute / metric / decimal}
; #@! TF.CreationDate,2025-02-09T13:37:08-06:00
; #@! TF.GenerationSoftware,Kicad,Pcbnew,8.0.8
; #@! TF.FileFunction,Plated,1,2,PTH
FMAT,2
METRIC
; #@! TA.AperFunction,Plated,PTH,ViaDrill
T1C0.300
; #@! TA.AperFunction,Plated,PTH,ComponentDrill
T2C0.813
; #@! TA.AperFunction,Plated,PTH,ComponentDrill
T3C1.000
; #@! TA.AperFunction,Plated,PTH,ComponentDrill
T4C1.016
%
G90
G05
T1
X71.5Y-138.0
X75.5Y-103.0
X76.5Y-59.5
X78.0Y-73.5
X79.5Y-105.0
X80.0Y-73.5
X82.0Y-105.0
X128.5Y-145.5
X148.5Y-156.552
X150.5Y-156.552
X157.08Y-154.5
X168.75Y-149.75
X171.0Y-156.5
X171.5Y-147.0
X193.0Y-151.0
X206.5Y-151.0
X206.5Y-154.5
X217.5Y-74.5
X218.5Y-73.948
X224.5Y-141.5
X225.5Y-56.5
X230.5Y-140.0
X233.0Y-137.0
T2
X101.99Y-147.19
X101.99Y-154.81
X104.53Y-147.19
X104.53Y-154.81
X107.07Y-147.19
X107.07Y-154.81
X109.61Y-147.19
X109.61Y-154.81
X112.15Y-147.19
X112.15Y-154.81
X114.69Y-147.19
X114.69Y-154.81
X117.23Y-147.19
X117.23Y-154.81
X119.77Y-147.19
X119.77Y-154.81
X122.31Y-147.19
X122.31Y-154.81
X124.85Y-147.19
X124.85Y-154.81
X127.39Y-147.19
X127.39Y-154.81
X129.93Y-147.19
X129.93Y-154.81
X132.47Y-147.19
X132.47Y-154.81
X135.01Y-147.19
X135.01Y-154.81
X173.481Y-146.624
X173.481Y-154.244
X176.021Y-146.624
X176.021Y-154.244
X178.561Y-146.624
X178.561Y-154.244
X181.101Y-146.624
X181.101Y-154.244
X183.641Y-146.624
X183.641Y-154.244
X186.181Y-146.624
X186.181Y-154.244
X188.721Y-146.624
X188.721Y-154.244
X191.261Y-146.624
X191.261Y-154.244
X199.5Y-146.69
X199.5Y-154.31
X204.0Y-146.69
X204.0Y-154.31
T3
X71.5Y-53.0
X73.5Y-53.0
X75.475Y-80.175
X75.475Y-82.175
X75.475Y-84.175
X75.475Y-86.175
X75.475Y-88.175
X75.475Y-90.175
X75.5Y-53.0
X77.5Y-53.0
X221.5Y-53.0
X223.5Y-53.0
X225.5Y-53.0
X227.5Y-53.0
X242.975Y-106.175
X242.975Y-108.175
X242.975Y-110.175
X242.975Y-112.175
X242.975Y-114.175
X242.975Y-116.175
T4
X52.249Y-112.739
X52.249Y-117.261
X58.749Y-105.739
X58.749Y-110.261
X58.749Y-119.739
X58.749Y-124.261
X58.751Y-112.739
X58.751Y-117.261
X65.249Y-112.739
X65.249Y-117.261
X65.251Y-105.739
X65.251Y-110.261
X65.251Y-119.739
X65.251Y-124.261
X71.751Y-112.739
X71.751Y-117.261
X74.749Y-65.739
X74.749Y-70.261
X81.251Y-65.739
X81.251Y-70.261
X146.92Y-149.027
X146.92Y-151.567
X149.46Y-149.027
X149.46Y-151.567
X152.0Y-149.027
X152.0Y-151.567
X154.54Y-149.027
X154.54Y-151.567
X157.08Y-149.027
X157.08Y-151.567
X215.249Y-64.239
X215.249Y-68.761
X221.751Y-64.239
X221.751Y-68.761
X223.249Y-85.739
X223.249Y-90.261
X229.749Y-78.739
X229.749Y-83.261
X229.749Y-92.739
X229.749Y-97.261
X229.751Y-85.739
X229.751Y-90.261
X236.249Y-85.739
X236.249Y-90.261
X236.251Y-78.739
X236.251Y-83.261
X236.251Y-92.739
X236.251Y-97.261
X240.749Y-64.239
X240.749Y-68.761
X242.751Y-85.739
X242.751Y-90.261
X247.251Y-64.239
X247.251Y-68.761
M30
